<?xml version="1.0" encoding="utf-8"?>
<!-- Generator: Adobe Illustrator 22.0.1, SVG Export Plug-In . SVG Version: 6.00 Build 0)  -->
<svg version="1.1" id="Layer_1" xmlns="http://www.w3.org/2000/svg" xmlns:xlink="http://www.w3.org/1999/xlink" x="0px" y="0px"
	 viewBox="0 0 511 511" style="enable-background:new 0 0 511 511;" xml:space="preserve">
<style type="text/css">
	.st0{fill:#FFBD86;}
	.st1{fill:#D69B6B;}
	.st2{fill:#F7C292;}
	.st3{fill:#FED2A4;}
</style>
<path class="st0" d="M464.9,255.4c-2.2-9.5,0.5-22.5,7.4-29.4l34.3-34.3c5.9-5.9,5.9-15.3,0-21.2l-74.2-74.2l-102.7,60.3l-95.4,10.6
	l169.6,169.6l53-53C464.5,276.3,467.2,265.2,464.9,255.4z"/>
<path class="st1" d="M403.9,379.3c11.7-11.7,11.7-30.7,0-42.4c11.7,11.7,30.7,11.7,42.4,0c11.7-11.7,11.7-30.7,0-42.4L255.5,103.7
	L253,82.2h-61l-39.2-38.8c-5.9-5.9-15.3-5.9-21.2,0L4.4,170.5c-5.9,5.9-5.9,15.3,0,21.2l27.9,27.9c6.9,6.9,15.9,26.3,13.8,35.8
	c-2.2,9.8,0.4,20.8,8.1,28.5l31.8,31.8h42.4L276.7,464c11.7,11.7,30.7,11.7,42.4,0c11.7-11.7,11.7-30.7,0-42.4
	c11.7,11.7,30.7,11.7,42.4,0c11.7-11.7,11.7-30.7,0-42.4C373.2,391,392.2,391,403.9,379.3z"/>
<path class="st2" d="M379.4,43.4c-5.9-5.9-15.3-5.9-21.2,0l-30.5,30.5c-5.5,5.5-12.9,8.3-21,8.3H253c-11.9,0-23.3,5-31.8,13.5
	l-82.2,82.2c-5.9,5.9-5.9,15.3,0,21.2c17.6,17.6,46,17.6,63.6,0l21.2-21.2c5.9-5.9,15.3-5.9,21.2,0c30,30,78.5,27.4,106,0l81.5-81.5
	L379.4,43.4z"/>
<path class="st0" d="M276.7,421.7l-21.2,21.2c-11.7,11.7-30.7,11.7-42.4,0c-11.7-11.7-11.7-30.7,0-42.4l-10.6-31.8l31.8,10.6
	c11.7-11.7,30.7-11.7,42.4,0C288.4,390.9,288.4,410,276.7,421.7z"/>
<path class="st3" d="M149.5,336.9h-42.4c-11.7,11.7-30.7,11.7-42.4,0s-11.7-30.7,0-42.4l42.4-42.4c11.7-11.7,30.7-11.7,42.4,0
	c11.7,11.7,11.7,30.7,0,42.4V336.9z"/>
<path class="st0" d="M234.3,379.3l-42.4,42.4c-11.7,11.7-30.7,11.7-42.4,0c-11.7-11.7-11.7-30.7,0-42.4l1.8-44.2l40.6,1.8
	c11.7-11.7,30.7-11.7,42.4,0S246,367.6,234.3,379.3z"/>
<path class="st3" d="M213.1,315.7l-63.6,63.6c-11.7,11.7-30.7,11.7-42.4,0c-11.7-11.7-11.7-30.7,0-42.4l63.6-63.6
	c11.7-11.7,30.7-11.7,42.4,0C224.8,284.9,224.8,304,213.1,315.7z"/>
</svg>
