<?xml version="1.0" encoding="utf-8"?>
<!-- Generator: Adobe Illustrator 22.0.1, SVG Export Plug-In . SVG Version: 6.00 Build 0)  -->
<svg version="1.1" id="Layer_1" xmlns="http://www.w3.org/2000/svg" xmlns:xlink="http://www.w3.org/1999/xlink" x="0px" y="0px"
	 viewBox="0 0 490.7 490.7" style="enable-background:new 0 0 490.7 490.7;" xml:space="preserve">
<style type="text/css">
	.st0{fill:#FFFFFF;}
	.st1{fill:#FFD2BD;}
	.st2{fill:#FECD2A;}
	.st3{fill:#3CA1F0;}
	.st4{fill:#FD8565;}
	.st5{fill:#CBD3DB;}
	.st6{fill:#6C8199;}
	.st7{fill:#FEB72A;}
	.st8{fill:#3C92F0;}
	.st9{fill:#FFDE00;}
	.st10{fill:#D19000;}
	.st11{fill:#4CDBC4;}
	.st12{fill:#FF7058;}
</style>
<path class="st0" d="M58.7,252c-4,4.1-9.6,6.4-15.3,6.4c-12,0-21.7-9.7-21.7-21.7S31.4,215,43.4,215c12,0,21.7,9.7,21.7,21.7
	C65.1,242.5,62.8,248,58.7,252z"/>
<path class="st1" d="M362.8,204.7c-19.9,11.5-44.4,11.5-64.2,0c-4.8-2.8-9.2-6.2-13.1-10.1c-12.1-12-18.8-28.2-18.8-45.2v-42.7h128
	v42.7C394.7,172.2,382.5,193.2,362.8,204.7z"/>
<path class="st2" d="M405.3,245.3c35.3,0.1,63.9,28.7,64,64v96H416V352c0-11.8-9.6-21.3-21.3-21.3h-128c-11.8,0-21.3,9.6-21.3,21.3
	v53.3H192v-96c0-35.3,28.7-64,64-64c15.6,1.2,30.4-7.3,37.3-21.3c3-6,4.8-12.6,5.2-19.3c19.9,11.5,44.4,11.5,64.2,0
	c0.1,11.1,4.7,21.7,12.7,29.3C383.5,241.7,394.3,245.8,405.3,245.3z"/>
<path class="st3" d="M416,352v53.3H245.3V352c0-11.8,9.6-21.3,21.3-21.3h128C406.4,330.7,416,340.2,416,352z"/>
<path class="st4" d="M352,13.8V64h-42.7V0H352V13.8z"/>
<path class="st2" d="M405.3,85.3v21.3H256V85.3c0-33,21.7-62.1,53.3-71.6V64H352V13.8C383.6,23.2,405.3,52.3,405.3,85.3z"/>
<path class="st5" d="M0,405.3h490.7V448H0V405.3z"/>
<path class="st6" d="M21.3,448h448v42.7h-448V448z"/>
<path class="st5" d="M32.5,106.4h21.7v21.7H32.5V106.4z"/>
<path class="st7" d="M234.7,96h192v21.3h-192V96z"/>
<path class="st8" d="M405.3,322v-44.6H384V320H277.3v-42.7H256V322c-12.7,4.5-21.3,16.5-21.3,30v53.3H256V352
	c0-5.9,4.8-10.7,10.7-10.7h128c5.9,0,10.7,4.8,10.7,10.7v53.3h21.3V352C426.6,338.5,418.1,326.5,405.3,322z"/>
<path class="st9" d="M158.8,91.2c-1.4-5.7-3.9-11.5-6.7-16.8l5.7-13.5l-20.2-19.7l-13.5,5.7c-5.3-2.9-10.6-5.3-16.8-6.7l-4.8-13.9
	H74.2L69,40.2c-5.7,1.4-11.5,3.9-16.8,6.7l-13.4-5.7L19,60.9l5.7,13.5c-2.9,5.3-5.3,10.6-6.7,16.8L4.1,96.5v28.3l13.9,5.3
	c1.4,5.7,3.9,11.5,6.7,16.8L19,160.4L39.2,180l13.5-5.7c5.3,2.9,10.6,5.3,16.8,6.7l5.3,13.9h27.9l5.3-13.9
	c5.7-1.4,11.5-3.9,16.8-6.7l13.5,5.7l20.2-19.7l-5.7-13.5c2.9-5.3,5.3-10.6,6.7-16.8l13.9-5.3V96.5L158.8,91.2z M88.2,145
	c-19.2,0-34.6-15.4-34.6-34.6S69,75.8,88.2,75.8s34.6,15.4,34.6,34.6S107.4,145,88.2,145z"/>
<g>
	<path class="st10" d="M112.7,134.8c-13.5,13.5-35.1,13.5-48.5,0l-12.5,12.5c20.2,20.2,53.3,20.2,73.5,0s20.2-52.8,0-73.5
		l-12.5,12.5C126.1,99.8,126.1,121.4,112.7,134.8z"/>
	<path class="st10" d="M51.7,73.8c-20.2,20.2-20.2,52.8,0,73.5l12.5-12.5c-13.5-13.5-13.5-35.1,0-48.5s35.1-13.5,48.5,0l12.5-12.5
		C105,53.7,71.9,53.7,51.7,73.8z"/>
</g>
<path class="st11" d="M166.9,223.3c0.5-2.9,0.5-5.3,0-8.2l4.8-4.8l-4.8-12h-6.7c-1.4-1.9-3.9-3.9-5.7-5.7v-6.7l-12-4.8l-4.8,4.7
	c-2.9-0.5-5.3-0.5-8.2,0l-4.8-4.8l-12,4.8v6.7c-1.9,1.4-3.9,3.9-5.7,5.7h-6.7l-4.8,12l4.8,4.8c-0.5,2.9-0.5,5.3,0,8.2l-4.8,4.8
	l4.8,12h6.7c1.4,1.9,3.9,3.9,5.7,5.7v6.7l12,4.8l4.8-4.8c2.9,0.5,5.3,0.5,8.2,0l4.8,4.8l12-4.8v-6.7c1.9-1.4,3.9-3.9,5.7-5.7h6.7
	l4.8-12L166.9,223.3z M128.5,233.4c-8.2-3.4-12-12.5-8.6-20.2c3.4-8.2,12.5-12,20.2-8.6c8.2,3.4,12,12.5,8.6,20.2
	C145.3,232.9,136.2,236.7,128.5,233.4z"/>
<path class="st12" d="M229.9,160.3c0.5-2.9,0.5-5.3,0-8.2l4.8-4.8l-4.8-12h-6.7c-1.4-1.9-3.9-3.9-5.7-5.7v-6.8l-12-4.8l-4.8,4.8
	c-2.9-0.5-5.3-0.5-8.2,0l-4.8-4.8l-12,4.8v6.7c-1.9,1.4-3.9,3.9-5.7,5.7h-6.7l-4.8,12l4.8,4.8c-0.5,2.9-0.5,5.3,0,8.2l-4.9,4.9
	l4.8,12h6.8c1.4,1.9,3.9,3.9,5.7,5.7v6.7l12,4.8l4.8-4.8c2.9,0.5,5.3,0.5,8.2,0l4.8,4.8l12-4.8v-6.7c1.9-1.4,3.9-3.9,5.7-5.7h6.7
	l4.8-12L229.9,160.3z M191,170.9c-8.2-3.4-12-12.5-8.6-20.2c3.4-8.2,12.5-12,20.2-8.6c8.2,3.4,12,12.5,8.6,20.2
	C208.3,170.4,199.2,174.3,191,170.9z"/>
</svg>
