<?xml version="1.0" encoding="utf-8"?>
<!-- Generator: Adobe Illustrator 22.0.1, SVG Export Plug-In . SVG Version: 6.00 Build 0)  -->
<svg version="1.1" id="Layer_1" xmlns="http://www.w3.org/2000/svg" xmlns:xlink="http://www.w3.org/1999/xlink" x="0px" y="0px"
	 viewBox="0 0 511 511" style="enable-background:new 0 0 511 511;" xml:space="preserve">
<style type="text/css">
	.st0{fill:#ECBD83;}
	.st1{fill:#FF8B5A;}
	.st2{fill:#E2A975;}
	.st3{fill:#F6D190;}
	.st4{fill:#6E4848;}
	.st5{fill:#C38C66;}
	.st6{fill:#8A6055;}
	.st7{fill:#FF7350;}
	.st8{fill:#CCF49F;}
	.st9{fill:#B3E59F;}
	.st10{fill:#FFFFFF;}
	.st11{fill:#FFE07D;}
	.st12{fill:#FFD064;}
</style>
<path class="st0" d="M424.8,265.3v-33.3h-82.3v33.3c0,9.7-5.9,18.5-14.9,22.1l-52.4,21c-9,3.6-14.9,12.4-14.9,22.1v34.2
	c0,13.1,10.6,23.8,23.8,23.8h199.3c13.1,0,23.8-10.6,23.8-23.8v-34.2c0-9.7-5.9-18.5-14.9-22.1l-52.4-21
	C430.7,283.8,424.8,275.1,424.8,265.3z"/>
<path class="st1" d="M492.2,308.4l-46.5-18.6c-9.1,19.1-33.4,32.8-62,32.8c-28.6,0-52.9-13.7-62-32.8l-46.5,18.6
	c-9,3.6-14.9,12.4-14.9,22.1v34.2c0,13.1,10.6,23.8,23.8,23.8h199.3c13.1,0,23.8-10.6,23.8-23.8v-34.2
	C507.1,320.7,501.2,312,492.2,308.4z"/>
<path class="st2" d="M342.5,232.1v30c12.1,7,26.1,11.1,41.1,11.1s29-4.1,41.2-11.1v-30H342.5z"/>
<path class="st3" d="M383.7,256.8c-36.4,0-65.8-29.5-65.8-65.8v-65.8h131.7v65.8C449.5,227.3,420,256.8,383.7,256.8z"/>
<path class="st0" d="M363.7,141.5H433v-16.5H317.8v65.8c0,36.4,29.5,65.8,65.8,65.8c4.2,0,8.3-0.4,12.3-1.2
	c-30.5-5.8-53.5-32.5-53.5-64.6v-28.2C352,158.5,359.6,151,363.7,141.5z"/>
<path class="st4" d="M416.6,182.7c-4.5,0-8.2-3.7-8.2-8.2v-8.2c0-4.5,3.7-8.2,8.2-8.2c4.5,0,8.2,3.7,8.2,8.2v8.2
	C424.8,179,421.1,182.7,416.6,182.7z"/>
<path class="st5" d="M383.7,221.4c-7.8,0-15.2-2.6-21.5-7.6c-3.6-2.8-4.2-8-1.4-11.6c2.8-3.6,8-4.2,11.6-1.4c6.8,5.3,16,5.3,22.8,0
	c3.6-2.8,8.8-2.2,11.6,1.4c2.8,3.6,2.2,8.7-1.4,11.6C398.9,218.8,391.4,221.4,383.7,221.4z"/>
<path class="st4" d="M449.5,75.7h-82.3c-13.6,0-24.7,11.1-24.7,24.7c-13.6,0-24.7,11.1-24.7,24.7v24.7h8.2
	c13.6,0,24.7-11.1,24.7-24.7h65.8c0,13.6,11.1,24.7,24.7,24.7h8.2v-31.1c5-4.5,8.2-11,8.2-18.3V83.9
	C457.7,79.4,454.1,75.7,449.5,75.7z"/>
<path class="st6" d="M449.5,75.7h-82.3c-2.9,0-5.6,0.6-8.2,1.5c0,17.3,14.1,31.4,31.4,31.4h65.8c0.9-2.6,1.6-5.3,1.6-8.2V83.9
	C457.7,79.4,454.1,75.7,449.5,75.7z"/>
<path class="st7" d="M276.7,347.3v-39.5l-1.5,0.6c-9,3.6-14.9,12.4-14.9,22.1v34.2c0,13.1,10.6,23.8,23.8,23.8h199.3
	c10.6,0,19.4-6.9,22.5-16.5H301.4C287.7,372,276.7,360.9,276.7,347.3z"/>
<path class="st4" d="M110.4,75.7c-49.8,0.9-88.8,43.7-88.8,93.5v82c0,8,5.7,14.8,13.5,16.2l77,14l77-14c7.8-1.4,13.5-8.2,13.5-16.2
	v-85C202.6,115.7,161.2,74.8,110.4,75.7z"/>
<path class="st0" d="M204.7,316l-50.2-23.2c-5.8-2.7-9.6-8.5-9.6-14.9v-37.6H79.2v37.6c0,6.4-3.7,12.3-9.6,14.9L19.4,316
	c-8.7,4-14.3,12.8-14.3,22.4v25.4c0,13.6,11.1,24.7,24.7,24.7h164.6c13.6,0,24.7-11.1,24.7-24.7v-25.4
	C219.1,328.8,213.5,320,204.7,316z"/>
<path class="st2" d="M79.2,266.1c8.5,3.8,17.7,6.3,27.5,6.9c1.8,0.1,3.6,0.2,5.4,0.2c11.7,0,22.8-2.5,32.9-6.9v-26H79.2V266.1z"/>
<path class="st3" d="M165.2,163.7c-17.4-4.1-49-13.7-72.1-33.4c-3.3-2.8-8.1-2.8-11.2,0.2l-30.9,30.9c-3.1,3.1-4.8,7.3-4.8,11.6
	v15.6c0,35.1,26.5,65.7,61.5,67.9c38.3,2.5,70.2-27.9,70.2-65.7v-11.2C177.9,172.1,172.6,165.4,165.2,163.7z"/>
<path class="st5" d="M112.1,228.7c-7.5,0-14.8-2.2-21-6.2c-3.8-2.5-4.9-7.6-2.4-11.4c2.5-3.8,7.6-4.8,11.4-2.4
	c7,4.6,16.8,4.6,23.9,0c3.8-2.5,8.9-1.4,11.4,2.4c2.5,3.8,1.4,8.9-2.4,11.4C126.8,226.6,119.6,228.7,112.1,228.7z"/>
<path class="st0" d="M88.3,147.5c31.9,23.7,68.8,31.5,89.6,34v-1.7c0-7.7-5.3-14.3-12.8-16c-17.4-4.1-49-13.7-72.1-33.4
	c-3.3-2.8-8.1-2.8-11.2,0.2l-30.9,30.9c-3.1,3.1-4.8,7.3-4.8,11.6v14.5c0,29.4,18,56.8,45.9,66.1c11.3,3.7,22.1,3.9,32.1,2
	c-30.4-5.8-53.4-32.5-53.4-64.6v-19.3c0-4.4,1.7-8.6,4.8-11.6L88.3,147.5z"/>
<path class="st4" d="M79.2,190.9c-4.5,0-8.2-3.7-8.2-8.2v-8.2c0-4.5,3.7-8.2,8.2-8.2s8.2,3.7,8.2,8.2v8.2
	C87.4,187.2,83.7,190.9,79.2,190.9z"/>
<path class="st4" d="M145,190.9c-4.5,0-8.2-3.7-8.2-8.2v-8.2c0-4.5,3.7-8.2,8.2-8.2s8.2,3.7,8.2,8.2v8.2
	C153.2,187.2,149.6,190.9,145,190.9z"/>
<path class="st6" d="M194.4,149.8c2.2,0,4.4-0.2,6.6-0.3c-8-42.5-45.6-74.5-90.6-73.7c-12.4,0.2-24.1,3-34.7,7.9
	C100.4,123.3,144.2,149.8,194.4,149.8z"/>
<path class="st8" d="M204.7,316l-45.5-21l-35.9,33.6c-6.3,5.9-16.1,5.9-22.5,0L64.9,295l-45.5,21c-8.7,4-14.3,12.8-14.3,22.4v25.4
	c0,13.6,11.1,24.7,24.7,24.7h164.6c13.6,0,24.7-11.1,24.7-24.7v-25.4C219.1,328.8,213.5,320,204.7,316z"/>
<path class="st9" d="M21.6,347.3V315l-2.1,1c-8.7,4-14.3,12.8-14.3,22.4v25.4c0,13.6,11.1,24.7,24.7,24.7h164.6
	c10.7,0,19.8-6.9,23.2-16.5H46.2C32.6,372,21.6,360.9,21.6,347.3z"/>
<path class="st4" d="M245.6,17.2c-74,3.5-130.9,67.2-130.9,141.2v149.7c0,9.3,6.1,17.5,14.9,20.2l122.6,37.7l122.6-37.7
	c8.9-2.7,14.9-10.9,14.9-20.2V154.5C389.7,76.4,324.6,13.4,245.6,17.2z"/>
<path class="st0" d="M396.7,386.5l-72.9-33.2c-11.3-5.1-18.6-16.4-18.6-28.9v-43H199.4v43c0,12.4-7.3,23.7-18.6,28.9l-72.9,33.2
	C92.7,393.4,83,408.4,83,425v15.1c0,17.5,14.2,31.7,31.7,31.7h275c17.5,0,31.7-14.2,31.7-31.7V425
	C421.5,408.4,411.8,393.4,396.7,386.5z"/>
<path class="st2" d="M199.4,322.4c13.7,6.5,28.7,10.6,44.5,11.6c2.8,0.2,5.6,0.3,8.4,0.3c18.9,0,36.8-4.2,52.9-11.5V292H199.4V322.4
	z"/>
<path class="st3" d="M349.5,163.5c-18.5-3.8-63-15.4-89.8-42.7c-4.1-4.2-10.8-4.2-14.9,0c-26.8,27.3-71.3,38.9-89.8,42.7
	c-4.9,1-8.5,5.3-8.5,10.3v33.5c0,58.4,47.4,105.8,105.8,105.8h0c58.4,0,105.8-47.4,105.8-105.8v-33.5
	C358,168.8,354.5,164.6,349.5,163.5z"/>
<path class="st6" d="M252.2,17c-23.3,0-45.2,5.8-64.4,16c45.9,65.3,118.4,110.4,201.8,119.6C388.7,77.6,327.6,17,252.2,17z"/>
<path class="st10" d="M220.5,239.1c-5,0-8.2,5.5-5.5,9.7c8.5,13.4,22.1,22,37.3,22s28.8-8.7,37.3-22c2.7-4.2-0.6-9.7-5.6-9.7H220.5z
	"/>
<path class="st0" d="M349.5,163.5c-18.5-3.8-63-15.4-89.9-42.7c-4.1-4.2-10.8-4.2-14.9,0c-18.6,18.9-45.6,30.3-66.6,36.7
	c-9.4,2.9-17.5,4.8-23.2,6c-4.9,1-8.5,5.3-8.5,10.3v33.5c0,58.4,47.4,105.8,105.8,105.8c5.4,0,10.7-0.5,15.9-1.3
	c-50.9-7.7-89.9-51.4-89.9-104.5v-12.2c0-9.1,5.9-17.1,14.5-20.1c19.6-6.7,41.6-17,59.6-32.3c29.6,25.3,70.3,36.8,93,41.5
	c3.9,0.8,8.3,1.4,12.8,1.8v-12.2C358,168.8,354.5,164.6,349.5,163.5z"/>
<path class="st6" d="M227.3,207.4c-3.3,0-6.5-2-7.7-5.3c-0.5-1.4-2.2-2.9-4.6-2.9c-2.5,0-4.1,1.5-4.6,2.9c-1.6,4.3-6.4,6.4-10.6,4.8
	c-4.3-1.6-6.4-6.4-4.8-10.6c3.1-8.1,11.1-13.5,20-13.5c8.9,0,17,5.4,20,13.5c1.6,4.3-0.5,9-4.8,10.6
	C229.3,207.2,228.3,207.4,227.3,207.4z"/>
<path class="st6" d="M315.7,196.8c-4.3,0-8.3-2.6-9.9-6.8c-0.7-1.9-2.8-3.7-6-3.7s-5.3,1.9-6,3.7c-2.1,5.5-8.2,8.2-13.6,6.2
	c-5.5-2.1-8.2-8.2-6.2-13.6c3.9-10.4,14.3-17.4,25.8-17.4s21.8,7,25.8,17.4c2.1,5.5-0.7,11.6-6.2,13.6
	C318.2,196.6,317,196.8,315.7,196.8z"/>
<path class="st11" d="M389.6,387.8l-46-20.9l-74.2,46.4c-13.5,8.5-30.7,8.5-44.2,0l-74.2-46.4l-46,20.9
	c-14.9,6.8-24.4,21.6-24.4,37.9v14.8c0,17.3,14,31.2,31.2,31.2h270.8c17.3,0,31.3-14,31.3-31.2v-14.8
	C414.1,409.4,404.5,394.6,389.6,387.8z"/>
<path class="st12" d="M112,384.7l-6.8,3.1c-14.9,6.8-24.4,21.6-24.4,37.9v14.8c0,17.3,14,31.2,31.2,31.2h270.8
	c17.3,0,31.2-14,31.2-31.2H153.7c-23,0-41.7-18.7-41.7-41.7V384.7z"/>
</svg>
