<?xml version="1.0" encoding="UTF-8"?> <svg xmlns="http://www.w3.org/2000/svg" xmlns:xlink="http://www.w3.org/1999/xlink" width="359px" height="218px" viewBox="0 0 359 218"> <!-- Generator: Sketch 49.3 (51167) - http://www.bohemiancoding.com/sketch --> <title>ILLUSTRATION/Contact_Us_Rowland_Cut_Out</title> <desc>Created with Sketch.</desc> <defs></defs> <g id="Exporting-Board---FA" stroke="none" stroke-width="1" fill="none" fill-rule="evenodd"> <g id="MOBILE_Graphics" transform="translate(-380.000000, -594.000000)"> <g id="ILLUSTRATION/Contact_Us_Rowland_Cut_Out" transform="translate(380.265625, 593.703125)"> <g id="_McFarlan_EXPORTING_Graphics-45" transform="translate(0.000000, 0.382812)"> <path d="M305.9,143.28 C304.841355,141.74968 303.038276,140.911036 301.18584,141.087359 C299.333405,141.263683 297.720924,142.427437 296.97,144.13 C282.24,177.56 264.14,198.46 243.15,206.31 L243.15,217.15 L243.72,216.99 C268.72,208.99 289.8,185.87 306.37,148.27 C307.089864,146.637804 306.911968,144.749077 305.9,143.28 Z" id="Shape" fill="#5984C4" fill-rule="nonzero"></path> <polygon id="Shape" fill="#FFD5D1" fill-rule="nonzero" points="299.2 163.11 289.87 158.74 292.67 153.33 302.89 156.02"></polygon> <circle id="Oval" fill="#FFD5D1" fill-rule="nonzero" cx="301.03" cy="146.84" r="11.64"></circle> <circle id="Oval" fill="#D68182" fill-rule="nonzero" cx="15.21" cy="94.66" r="14.96"></circle> <circle id="Oval" fill="#D68182" fill-rule="nonzero" cx="190.6" cy="94.38" r="14.96"></circle> <path d="M188.84,86.91 C188.853048,51.6818448 167.414003,19.9959499 134.708196,6.90575301 C102.002388,-6.18444384 64.6218379,1.95945208 40.3254176,27.4684123 C16.0289972,52.9773725 9.71377218,90.7099383 24.38,122.74 L181,122.74 C186.170513,111.5031 188.845193,99.2794017 188.84,86.91 Z" id="Shape" fill="#FFD5D1" fill-rule="nonzero"></path> <path d="M102.7,0.77 C55.1300969,0.775522394 16.5699997,39.3400966 16.57,86.91 C16.57,86.91 32.69,29.99 85.07,18.91 C85.07,18.91 98.17,94.46 176.75,65.25 L188.82,86.38 C188.53951,39.0165255 150.064305,0.769169466 102.7,0.77 Z" id="Shape" fill="#102E63" fill-rule="nonzero"></path> <path d="M188.84,86.91 C188.835901,58.2234745 174.553245,31.4208389 150.744038,15.419639 C126.93483,-0.581560817 96.7228607,-3.68195251 70.16,7.15 C70.27,7.89 83.76,95.74 174.56,71.54 C178.631691,83.0765744 179.89995,95.4163958 178.26,107.54 C177.505451,112.770026 176.073424,117.879606 174,122.74 L181,122.74 C186.16599,111.501585 188.840451,99.2788895 188.84,86.91 Z" id="Shape" fill="#FFD5D1" fill-rule="nonzero" opacity="0.4" style="mix-blend-mode: multiply;"></path> <circle id="Oval" fill="#0C1633" fill-rule="nonzero" cx="141.69" cy="84.71" r="4.39"></circle> <circle id="Oval" fill="#0C1633" fill-rule="nonzero" cx="65.12" cy="87.11" r="4.39"></circle> <path d="M116.74,91.33 C117.52125,91.3365402 118.259152,91.690085 118.753781,92.2948467 C119.248411,92.8996083 119.448559,93.6929766 119.3,94.46 C117.802649,102.42612 110.845623,108.1973 102.74,108.1973 C94.6343772,108.1973 87.6773514,102.42612 86.18,94.46 C86.0311299,93.6912686 86.2325316,92.89618 86.7294175,92.2910233 C87.2263034,91.6858666 87.9669946,91.3335812 88.75,91.33 L116.74,91.33 Z" id="Shape" fill="#D68182" fill-rule="nonzero"></path> <path d="M103.1,128.14 C100.46,132.36 86.54,141.68 71.95,139.14 C60.86,137.14 60.76,129.14 60.76,129.14 C60.76,129.14 62.31,130.94 66.22,130.92 C73.6,130.87 76.46,119.36 83.64,113.1 C92.82,105.1 103.01,112.8 103.01,112.8 C103.01,112.8 113.11,104.98 122.38,112.86 C129.64,119.04 132.64,130.52 140.02,130.48 C143.93,130.48 145.46,128.64 145.46,128.64 C145.46,128.64 145.46,136.64 134.39,138.76 C119.83,141.48 105.79,132.33 103.1,128.14 Z" id="Shape" fill="#203162" fill-rule="nonzero"></path> <path d="M340,161.75 C339.661013,162.62049 338.976874,163.311869 338.11,163.66 C337.299266,163.90588 336.427604,163.856274 335.65,163.52 L268.37,135.16 C267.603816,134.811897 266.966939,134.23101 266.55,133.5 C266.201308,132.637078 266.219364,131.669315 266.6,130.82 L285.49,86 L358.88,117 L340,161.75 Z" id="Shape" fill="#719AD6" fill-rule="nonzero"></path> <path d="M338.11,163.66 C337.299266,163.90588 336.427604,163.856274 335.65,163.52 L268.37,135.16 C267.603816,134.811897 266.966939,134.23101 266.55,133.5 L315.29,117.84 L338.11,163.66 Z" id="Shape" fill="#5782C2" fill-rule="nonzero"></path> <path d="M358.88,117 L345.33,120.11 L313.67,127.29 C312.059235,127.697383 310.37362,126.98722 309.54,125.55 L292.73,97.94 L285.49,86 L299.05,82.9 L328.51,76.23 L330.7,75.71 C332.310225,75.30965 333.991724,76.0180781 334.83,77.45 L336,79.39 L343.57,91.77 L347.31,97.85 L351.64,105.08 L358.88,117 Z" id="Shape" fill="#203162" fill-rule="nonzero"></path> <path d="M354.48,98.35 L345.33,120.06 L313.67,127.24 C312.059235,127.647383 310.37362,126.93722 309.54,125.5 L292.73,97.89 L304.59,69.76 C305.305988,68.0735623 307.252761,67.2859022 308.94,68 L348.84,84.82 L354.48,98.35 Z" id="Shape" fill="#C4DEF3" fill-rule="nonzero"></path> <path d="M346,91.91 C345.716486,92.557232 345.707512,93.29176 345.975129,93.9457254 C346.242746,94.5996908 346.764082,95.117204 347.42,95.38 L354.42,98.38 L349,84.87 L346,91.87 L346,91.91 Z" id="Shape" fill="#719AD6" fill-rule="nonzero"></path> <path d="M330.53,115.84 L333.85,117.24 C331.876769,119.041337 329.354753,120.126227 326.69,120.32 C323.59,120.73 320.22,120.04 316.49,118.47 C313.312539,117.229996 310.462531,115.276389 308.16,112.76 C306.143921,110.612139 304.901724,107.853265 304.63,104.92 C304.379678,102.033336 304.850445,99.129702 306,96.47 C307.192279,93.483914 309.139062,90.8583401 311.65,88.85 C313.971015,86.8783663 316.861919,85.7009797 319.9,85.49 C323.084659,85.3389018 326.261028,85.9276253 329.18,87.21 C331.699645,88.2497335 333.942296,89.8623877 335.73,91.92 C337.381715,93.7337265 338.384198,96.044713 338.58,98.49 C338.830038,100.913777 338.469056,103.361581 337.53,105.61 C336.390095,108.290497 334.415577,110.531558 331.9,112 C328.97064,113.928609 325.252103,114.204757 322.07,112.73 C321.356699,112.436071 320.710358,112.000642 320.17,111.45 C319.852108,110.905834 319.772526,110.254711 319.95,109.65 C318.313548,110.359271 316.456452,110.359271 314.82,109.65 C313.119348,109.03897 311.799837,107.67141 311.25,105.95 C310.534423,104.079553 310.617563,101.997436 311.48,100.19 C312.500935,97.6847819 314.240712,95.5378973 316.48,94.02 C318.861928,92.2872274 321.978062,91.9304472 324.69,93.08 C326.441055,93.7903025 327.715803,95.3357929 328.08,97.19 L329.28,95.5 L333.63,97.34 L326.29,108 C325.956854,108.418097 325.68108,108.878842 325.47,109.37 C325.350277,109.587958 325.332006,109.847414 325.42,110.08 C325.54,110.37 325.54,110.37 325.75,110.46 C326.583751,110.614082 327.442693,110.55911 328.25,110.3 C329.776105,109.924065 331.184945,109.174974 332.35,108.12 C333.557776,107.017143 334.533472,105.684485 335.22,104.2 C336.336866,101.693934 336.296648,98.8237875 335.11,96.35 C334.03,93.7 331.69,91.73 328.16,90.25 C325.583766,89.0721625 322.732141,88.6291916 319.92,88.97 C317.453629,89.2945038 315.137351,90.3378719 313.26,91.97 C311.345308,93.6759174 309.861537,95.8107659 308.93,98.2 C308.006805,100.378683 307.662334,102.758978 307.93,105.11 C308.250739,107.426808 309.301601,109.581075 310.93,111.26 C312.806708,113.079188 315.021799,114.512882 317.45,115.48 C319.698567,116.437444 322.084987,117.031517 324.52,117.24 C326.604844,117.246151 328.66249,116.766832 330.53,115.84 Z M315.71,101.84 C315.139226,102.898118 314.968819,104.126467 315.23,105.3 C315.483247,106.13683 316.079151,106.827205 316.87,107.2 C317.450442,107.43301 318.075956,107.532135 318.7,107.49 C319.282334,107.404886 319.848624,107.232977 320.38,106.98 C321.424274,106.417482 322.334971,105.636397 323.05,104.69 C323.916799,103.71831 324.628503,102.618711 325.16,101.43 C325.671804,100.427349 325.810053,99.2752738 325.55,98.18 C325.300374,97.3419326 324.708403,96.6482737 323.92,96.27 C322.974679,95.9200621 321.935321,95.9200621 320.99,96.27 C319.709404,96.6838846 318.597264,97.5013253 317.82,98.6 C316.957065,99.5487015 316.24539,100.624647 315.71,101.79 L315.71,101.84 Z" id="Shape" fill="#305AA8" fill-rule="nonzero"></path> <circle id="Oval" fill="#FFD5D1" fill-rule="nonzero" cx="301.54" cy="146.92" r="5.55"></circle> </g> </g> </g> </g> </svg> 