<?xml version="1.0" encoding="utf-8"?>
<!-- Generator: Adobe Illustrator 23.0.1, SVG Export Plug-In . SVG Version: 6.00 Build 0)  -->
<svg version="1.1" id="Layer_1" xmlns="http://www.w3.org/2000/svg" xmlns:xlink="http://www.w3.org/1999/xlink" x="0px" y="0px"
	 viewBox="0 0 750 750" style="enable-background:new 0 0 750 750;" xml:space="preserve">
<style type="text/css">
	.st0{fill:#033E7C;}
	.st1{display:none;}
	.st2{display:inline;}
	.st3{fill:#232323;}
	.st4{display:inline;fill:#232323;}
</style>
<polygon class="st0" points="749.5,749.5 -0.5,-0.5 -0.5,749.5 "/>
<g class="st1">
	<g class="st2">
		<path class="st3" d="M723.7,701.6c-1,0-1.6,0.7-1.6,1.6v21.3c0,1-0.7,1.6-1.6,1.6h-58.9c-1,0-1.6-0.7-1.6-1.6v-21.3
			c0-1-0.7-1.6-1.6-1.6s-1.6,0.7-1.6,1.6v21.3c0,2.8,2.1,4.9,4.9,4.9h58.9c2.8,0,4.9-2.1,4.9-4.9v-21.3
			C725.4,702.3,724.7,701.6,723.7,701.6z"/>
	</g>
	<g class="st2">
		<path class="st3" d="M722.1,678.7h-62.2c-2.8,0-4.9,2.1-4.9,4.9v10.5c0,2.3,1.6,4.3,3.8,4.7l25.7,5.7v5.2c0,1,0.7,1.6,1.6,1.6h9.8
			c1,0,1.6-0.7,1.6-1.6v-5.2l25.7-5.7c2.1-0.5,3.8-2.5,3.8-4.7v-10.5C727,680.9,724.9,678.7,722.1,678.7z M694.3,708.2h-6.5v-6.5
			h6.5V708.2z M723.7,694.1c0,0.8-0.5,1.5-1.3,1.6l-24.9,5.6V700c0-1-0.7-1.6-1.6-1.6h-9.8c-1,0-1.6,0.7-1.6,1.6v1.3l-24.9-5.6
			c-0.8-0.2-1.3-0.8-1.3-1.6v-10.5c0-1,0.7-1.6,1.6-1.6h62.2c1,0,1.6,0.7,1.6,1.6V694.1z"/>
	</g>
	<g class="st2">
		<path class="st3" d="M699.2,667.3h-16.4c-2.8,0-4.9,2.1-4.9,4.9v1.6c0,1,0.7,1.6,1.6,1.6c1,0,1.6-0.7,1.6-1.6v-1.6
			c0-1,0.7-1.6,1.6-1.6h16.4c1,0,1.6,0.7,1.6,1.6v1.6c0,1,0.7,1.6,1.6,1.6c1,0,1.6-0.7,1.6-1.6v-1.6
			C704.1,669.4,702,667.3,699.2,667.3z"/>
	</g>
	<g class="st2">
		<g>
			<path class="st3" d="M377.2,602.5c-0.4-0.4-1.2-0.4-1.6,0s-0.4,1.2,0,1.6l4.5,4.5c0.2,0.2,0.5,0.3,0.8,0.3s0.6-0.1,0.8-0.3
				c0.4-0.4,0.4-1.2,0-1.6L377.2,602.5z"/>
			<path class="st3" d="M373,595.4c-0.6,0-1.1,0.5-1.1,1.1v2.9l-7.6,7.6c-0.4,0.4-0.4,1.2,0,1.6c0.2,0.2,0.5,0.3,0.8,0.3
				s0.6-0.1,0.8-0.3l7.9-7.9c0.2-0.2,0.3-0.5,0.3-0.8v-3.4C374.1,595.9,373.6,595.4,373,595.4z"/>
			<path class="st3" d="M405.9,543.3h-31.7v-1.1c0-0.6-0.5-1.1-1.1-1.1s-1.1,0.5-1.1,1.1v1.1h-31.7c-0.6,0-1.1,0.5-1.1,1.1v4.5
				c0,0.6,0.5,1.1,1.1,1.1h58.9c0.6,0,1.1-0.5,1.1-1.1s-0.5-1.1-1.1-1.1h-57.8v-2.3h63.5v2.3h-1.1c-0.6,0-1.1,0.5-1.1,1.1v38.5
				c0,1.9-1.5,3.4-3.4,3.4h-52.1c-1.9,0-3.4-1.5-3.4-3.4v-34c0-0.6-0.5-1.1-1.1-1.1s-1.1,0.5-1.1,1.1v34c0,3.1,2.5,5.7,5.7,5.7h52.1
				c3.1,0,5.7-2.5,5.7-5.7V550h1.1c0.6,0,1.1-0.5,1.1-1.1v-4.5C407,543.8,406.5,543.3,405.9,543.3z"/>
			<path class="st3" d="M390,563.7c3.2,0,3.4,2.8,3.4,3.4c0,0.6,0.5,1.1,1.1,1.1s1.1-0.5,1.1-1.1c0-2-1.2-5.7-5.7-5.7
				s-5.7,3.7-5.7,5.7v4.5c0,2,1.2,5.7,5.7,5.7s5.7-3.7,5.7-5.7c0-0.6-0.5-1.1-1.1-1.1l0,0c-0.6,0-1.1,0.5-1.1,1.1s-0.2,3.4-3.4,3.4
				s-3.4-2.8-3.4-3.4v-4.5C386.6,566.5,386.8,563.7,390,563.7z"/>
			<path class="st3" d="M361.8,574.3c0.2,0.4,0.6,0.7,1,0.7c0.1,0,0.3,0,0.4-0.1c0.6-0.2,0.9-0.9,0.6-1.5l-5.7-13.6
				c-0.2-0.4-0.6-0.7-1-0.7c-0.5,0-0.9,0.3-1,0.7l-5.7,13.6c-0.2,0.6,0,1.2,0.6,1.5c0.6,0.2,1.2,0,1.5-0.6l0.7-1.6h2.8
				c0.6,0,1.1-0.5,1.1-1.1s-0.5-1.1-1.1-1.1h-1.9l3-7.3L361.8,574.3z"/>
			<path class="st3" d="M369.6,565.9c-0.6,0-1.1,0.5-1.1,1.1v13.6c0,0.6,0.5,1.1,1.1,1.1h4.5c2,0,5.7-0.9,5.7-4.5
				c0-1.4-0.6-2.5-1.4-3.2c1-0.8,1.4-2,1.4-3.6c0-1.7-0.5-2.9-1.6-3.8c-1.7-1.4-4.1-0.8-4.4-0.7c-0.6,0.2-1,0.8-0.8,1.4
				c0.2,0.6,0.8,1,1.4,0.8c0,0,1.6-0.3,2.4,0.3c0.5,0.4,0.7,1,0.7,2c0,0.9-0.2,1.6-0.7,2c-0.4,0.3-0.9,0.4-1.4,0.4
				c-0.5-0.1-0.9-0.1-1.3-0.1c-0.6,0-1.1,0.4-1.1,1c-0.1,0.6,0.3,1.1,0.9,1.2c0.1,0,0.7,0.2,1.4,0.2c1,0.2,2.3,0.7,2.3,2.1
				c0,2.2-3.3,2.3-3.4,2.3h-3.4V567C370.7,566.4,370.2,565.9,369.6,565.9z"/>
		</g>
	</g>
	<g class="st2">
		<g>
			<path class="st3" d="M682.4,468.7c-0.9-0.2-1.8,0.3-2,1.2l-1.7,6.7c-0.2,0.9,0.3,1.8,1.2,2c0.1,0,0.3,0.1,0.4,0.1
				c0.7,0,1.4-0.5,1.6-1.3l1.7-6.7C683.8,469.8,683.3,468.9,682.4,468.7z"/>
			<path class="st3" d="M662,435.3c0.2,0,0.4,0,0.6-0.1l18.3-7.6c0.8-0.4,1.3-1.3,0.9-2.2c-0.4-0.9-1.3-1.3-2.2-0.9l-17.7,7.3
				l-46.7-19.3V412c0-0.9-0.7-1.7-1.7-1.7s-1.7,0.7-1.7,1.7v1.7c0,0.7,0.4,1.3,1,1.5l48.3,20C661.6,435.3,661.8,435.3,662,435.3z"/>
			<path class="st3" d="M681.8,452.4c-0.4-0.8-1.4-1.2-2.2-0.8c-3.2,1.6-8.5,3.4-15.9,3.6v-15c0-0.9-0.7-1.7-1.7-1.7
				s-1.7,0.7-1.7,1.7v14.9c-20.7-0.7-27.4-13.2-28.3-15.3v-11.3c0-0.9-0.7-1.7-1.7-1.7s-1.7,0.7-1.7,1.7v11.7c0,0.2,0,0.4,0.1,0.6
				c0.3,0.7,7.4,17.7,33.2,17.7c9,0,15.4-2.2,19.1-4C681.9,454.2,682.2,453.2,681.8,452.4z"/>
			<path class="st3" d="M687,470.3c-0.9,0-1.7,0.7-1.7,1.7v5c0,0.9,0.7,1.7,1.7,1.7s1.7-0.7,1.7-1.7v-5
				C688.7,471.1,687.9,470.3,687,470.3z"/>
			<path class="st3" d="M710.3,410.3c-0.9,0-1.7,0.7-1.7,1.7v0.6l-20,8.2v-3l22.3-9.2c0.6-0.3,1-0.9,1-1.5c0-0.7-0.4-1.3-1-1.5
				l-48.3-20c-0.4-0.2-0.9-0.2-1.3,0l-48.3,20c-0.6,0.3-1,0.9-1,1.5c0,0.7,0.4,1.3,1,1.5l48.3,20c0.2,0.1,0.4,0.1,0.6,0.1
				s0.4,0,0.6-0.1l17.5-7.2c0.9-0.4,1.3-1.3,0.9-2.2c-0.4-0.9-1.3-1.3-2.2-0.9l-16.8,7L618,407l44-18.2l44,18.2l-19.1,7.9l-18.3-6.8
				c0.1-0.3,0.2-0.7,0.2-1.1c0-2.8-2.9-5-6.7-5s-6.7,2.2-6.7,5s2.9,5,6.7,5c1.7,0,3.2-0.5,4.3-1.2l19,7.1v5.3l0,0V459
				c-1.9,0.7-3.3,2.5-3.3,4.7c0,2.8,2.2,5,5,5s5-2.2,5-5c0-2.2-1.4-4-3.3-4.7v-9.5c4.8-3.6,6.5-8.4,6.6-8.6s0.1-0.4,0.1-0.5v-11.7
				c0-0.9-0.7-1.7-1.7-1.7s-1.7,0.7-1.7,1.7V440c-0.3,0.7-1.3,2.9-3.3,5v-20.7l22.3-9.2c0.6-0.3,1-0.9,1-1.5V412
				C712,411.1,711.3,410.3,710.3,410.3z M662,408.7c-2,0-3.3-1-3.3-1.7s1.3-1.7,3.3-1.7s3.3,1,3.3,1.7S664,408.7,662,408.7z
				 M687,465.3c-0.9,0-1.7-0.7-1.7-1.7s0.7-1.7,1.7-1.7s1.7,0.7,1.7,1.7C688.7,464.6,687.9,465.3,687,465.3z"/>
			<path class="st3" d="M693.6,469.9c-0.2-0.9-1.1-1.4-2-1.2c-0.9,0.2-1.4,1.1-1.2,2l1.7,6.7c0.2,0.8,0.9,1.3,1.6,1.3
				c0.1,0,0.3,0,0.4,0c0.9-0.2,1.4-1.1,1.2-2L693.6,469.9z"/>
		</g>
	</g>
	<g class="st2">
		<g>
			<path class="st3" d="M456.1,416.7h-1.9c-0.5,0-0.9,0.4-0.9,0.9s0.4,0.9,0.9,0.9h1.9c0.5,0,0.9-0.4,0.9-0.9
				S456.6,416.7,456.1,416.7z"/>
			<path class="st3" d="M456.1,420.4h-1.9c-0.5,0-0.9,0.4-0.9,0.9s0.4,0.9,0.9,0.9h1.9c0.5,0,0.9-0.4,0.9-0.9
				C457.1,420.8,456.6,420.4,456.1,420.4z"/>
			<path class="st3" d="M456.1,412.9h-1.9c-0.5,0-0.9,0.4-0.9,0.9s0.4,0.9,0.9,0.9h1.9c0.5,0,0.9-0.4,0.9-0.9
				C457.1,413.4,456.6,412.9,456.1,412.9z"/>
			<path class="st3" d="M456.1,442.8h-1.9c-0.5,0-0.9,0.4-0.9,0.9s0.4,0.9,0.9,0.9h1.9c0.5,0,0.9-0.4,0.9-0.9
				C457.1,443.2,456.6,442.8,456.1,442.8z"/>
			<path class="st3" d="M435.6,412.9H430c-0.5,0-0.9,0.4-0.9,0.9v13.1c0,0.5,0.4,0.9,0.9,0.9h5.6c0.5,0,0.9-0.4,0.9-0.9v-13.1
				C436.5,413.4,436.1,412.9,435.6,412.9z M434.7,426H431v-11.2h3.7V426z"/>
			<path class="st3" d="M435.6,442.8H430c-0.5,0-0.9,0.4-0.9,0.9s0.4,0.9,0.9,0.9h5.6c0.5,0,0.9-0.4,0.9-0.9
				C436.5,443.2,436.1,442.8,435.6,442.8z"/>
			<path class="st3" d="M435.6,446.5H430c-0.5,0-0.9,0.4-0.9,0.9s0.4,0.9,0.9,0.9h5.6c0.5,0,0.9-0.4,0.9-0.9
				C436.5,447,436.1,446.5,435.6,446.5z"/>
			<path class="st3" d="M456.1,446.5h-1.9c-0.5,0-0.9,0.4-0.9,0.9s0.4,0.9,0.9,0.9h1.9c0.5,0,0.9-0.4,0.9-0.9
				C457.1,447,456.6,446.5,456.1,446.5z"/>
			<path class="st3" d="M467.3,446.5h-3.7c-0.5,0-0.9,0.4-0.9,0.9s0.4,0.9,0.9,0.9h3.7c0.5,0,0.9-0.4,0.9-0.9
				C468.3,447,467.8,446.5,467.3,446.5z"/>
			<path class="st3" d="M447.7,413.9c0-0.5-0.4-0.9-0.9-0.9h-3.7c-0.5,0-0.9,0.4-0.9,0.9V427c0,0.5,0.4,0.9,0.9,0.9h3.7
				c0.5,0,0.9-0.4,0.9-0.9V413.9z M445.9,426H444v-11.2h1.9V426z"/>
			<path class="st3" d="M467.3,442.8h-3.7c-0.5,0-0.9,0.4-0.9,0.9s0.4,0.9,0.9,0.9h3.7c0.5,0,0.9-0.4,0.9-0.9
				C468.3,443.2,467.8,442.8,467.3,442.8z"/>
			<path class="st3" d="M446.8,446.5h-3.7c-0.5,0-0.9,0.4-0.9,0.9s0.4,0.9,0.9,0.9h3.7c0.5,0,0.9-0.4,0.9-0.9
				C447.7,447,447.3,446.5,446.8,446.5z"/>
			<path class="st3" d="M463.6,431.6c0.5,0,0.9-0.4,0.9-0.9v-9.3c0-0.5-0.4-0.9-0.9-0.9s-0.9,0.4-0.9,0.9v9.3
				C462.7,431.2,463.1,431.6,463.6,431.6z"/>
			<path class="st3" d="M468.3,421.3c0-0.5-0.4-0.9-0.9-0.9s-0.9,0.4-0.9,0.9v9.3c0,0.5,0.4,0.9,0.9,0.9s0.9-0.4,0.9-0.9V421.3z"/>
			<path class="st3" d="M469.2,405.5h-5.6c-0.5,0-0.9,0.4-0.9,0.9s0.4,0.9,0.9,0.9h5.6c0.5,0,0.9,0.4,0.9,0.9v42.9
				c0,0.5-0.4,0.9-0.9,0.9h-8.4v-39.2h5.6c0.5,0,0.9-0.4,0.9-0.9s-0.4-0.9-0.9-0.9h-5.6v-8.4c0-1.6-1.2-2.8-2.8-2.8h-5.6
				c-1.5,0-2.8,1.3-2.8,2.8v49.5h-9.3v-48.5h6.5c0.5,0,0.9-0.4,0.9-0.9s-0.4-0.9-0.9-0.9h-6.5v-0.9c0-1.6-1.2-2.8-2.8-2.8h-9.3
				c-1.5,0-2.8,1.3-2.8,2.8v8.4h-4.7c-0.5,0-0.9,0.4-0.9,0.9s0.4,0.9,0.9,0.9h4.7v41.1h-6.5c-0.5,0-0.9-0.4-0.9-0.9v-44.8
				c0-0.5,0.4-0.9,0.9-0.9h3.7c0.5,0,0.9-0.4,0.9-0.9s-0.4-0.9-0.9-0.9h-3.7c-1.5,0-2.8,1.3-2.8,2.8v44.8c0,1.5,1.3,2.8,2.8,2.8
				h50.4c1.5,0,2.8-1.3,2.8-2.8v-42.9C472,406.7,470.7,405.5,469.2,405.5z M438.4,452.1h-11.2v-46.7h8.4c0.5,0,0.9-0.4,0.9-0.9
				s-0.4-0.9-0.9-0.9h-8.4v-2.8c0-0.5,0.4-0.9,0.9-0.9h9.3c0.5,0,0.9,0.4,0.9,0.9L438.4,452.1L438.4,452.1z M458.9,452.1h-7.5v-44.8
				h4.7c0.5,0,0.9-0.4,0.9-0.9s-0.4-0.9-0.9-0.9h-4.7v-2.8c0-0.5,0.4-0.9,0.9-0.9h5.6c0.5,0,0.9,0.4,0.9,0.9v49.4H458.9z"/>
			<path class="st3" d="M422.5,442.8h-1.9c-0.5,0-0.9,0.4-0.9,0.9s0.4,0.9,0.9,0.9h1.9c0.5,0,0.9-0.4,0.9-0.9
				C423.5,443.2,423,442.8,422.5,442.8z"/>
			<path class="st3" d="M422.5,446.5h-1.9c-0.5,0-0.9,0.4-0.9,0.9s0.4,0.9,0.9,0.9h1.9c0.5,0,0.9-0.4,0.9-0.9
				C423.5,447,423,446.5,422.5,446.5z"/>
			<path class="st3" d="M446.8,442.8h-3.7c-0.5,0-0.9,0.4-0.9,0.9s0.4,0.9,0.9,0.9h3.7c0.5,0,0.9-0.4,0.9-0.9
				C447.7,443.2,447.3,442.8,446.8,442.8z"/>
			<path class="st3" d="M422.5,420.4h-1.9c-0.5,0-0.9,0.4-0.9,0.9s0.4,0.9,0.9,0.9h1.9c0.5,0,0.9-0.4,0.9-0.9
				C423.5,420.8,423,420.4,422.5,420.4z"/>
			<path class="st3" d="M422.5,424.1h-1.9c-0.5,0-0.9,0.4-0.9,0.9s0.4,0.9,0.9,0.9h1.9c0.5,0,0.9-0.4,0.9-0.9
				C423.5,424.6,423,424.1,422.5,424.1z"/>
		</g>
	</g>
	<g class="st2">
		<path class="st3" d="M578.7,295.8c-1-0.7-2.1-1.3-3.1-1.8c-5.9-3-12.2-3.6-18.2-1.7c-0.9,0.3-1.5,1.3-1.2,2.2
			c0.3,0.9,1.3,1.5,2.2,1.2c5.1-1.6,10.4-1,15.5,1.5c0.9,0.5,1.8,1,2.7,1.6c0.3,0.2,0.7,0.3,1,0.3c0.6,0,1.1-0.3,1.5-0.8
			C579.8,297.4,579.5,296.3,578.7,295.8z"/>
	</g>
	<g class="st2">
		<path class="st3" d="M595,318.9c-0.7-1.5-1.9-4.1-2-4.9c2.1-5.2,1.3-10.9-2.2-16.1c-5.4-8-16.3-13.8-26.1-13.8
			c-5.2,0-10.2,1.2-14.7,3.6c-1.3-7.1-7.6-12.5-15-12.5c-8.4,0-15.3,6.9-15.3,15.3c0,5.4,2.7,10.2,7.3,13.1c1.3,0.8,1.6,1.5,1.7,2.7
			v6.1v4.4c0,2,1.6,3.6,3.6,3.6h0.6c1,7.8,4.8,14.9,10.8,20.2c0.1,0.2,0.2,1-0.5,3.5c-0.6,1.9-1.4,4.1-2.2,5.9
			c-0.5,1.3-0.9,2.4-1.2,3.2c-0.2,0.5-0.1,1.1,0.3,1.6c0.3,0.5,0.9,0.7,1.4,0.7H567c0.8,0,2-0.4,2.7-2.2c0.3-0.8,0.5-1.7,0.7-2.7
			s0.7-3.2,1.2-3.5c0,0,0,0,0.1,0s0.2,0,0.3,0c2.7,0,4.9,0.1,6.8,0.2c5.6,0.3,9.1,0.5,12.1-3.8c1.5-2.2,1.3-5.4,1.2-8.8
			c-0.1-1.7-0.2-3.5,0-5c0.3-0.3,1.1-0.8,1.6-1.2c1.7-1.2,3.3-2.2,3.3-3.9C597,323.2,596.2,321.5,595,318.9z M528.9,300.4
			c-3.5-2.2-5.6-5.9-5.6-10c0-6.5,5.3-11.7,11.7-11.7c6.5,0,11.7,5.3,11.7,11.7c0,4.1-2.1,7.9-5.6,10c-1.7,1-2.7,2.2-3.1,3.8h-3h-3
			C531.5,302.6,530.6,301.4,528.9,300.4z M537.7,307.8v2.6h-5.4v-2.6H537.7L537.7,307.8z M532.4,316.6
			C532.3,316.6,532.3,316.6,532.4,316.6V314h5.4v2.6l0,0H532.4z M591.7,325.4c-1.5,1.1-2.9,2-3.1,3.3c-0.3,1.9-0.2,4,0,6
			c0.1,2.5,0.3,5.4-0.5,6.5c-1.8,2.6-3.3,2.6-8.9,2.3c-1.8-0.1-4.1-0.2-6.9-0.2c-1-0.1-2.8,0.1-4,2.4c-0.6,1.2-0.9,2.6-1.2,3.9
			c-0.1,0.6-0.3,1.6-0.5,2.1h-22.4c0.1-0.2,0.2-0.4,0.2-0.6c2.6-6.5,4.2-11.2,1.7-13.4c-5.3-4.6-8.6-10.7-9.6-17.5h1.1
			c2,0,3.6-1.6,3.6-3.6v-4.4v-6.1c0.1-1.1,0.4-1.8,1.7-2.7c4.2-2.6,6.9-7,7.3-11.8c4.4-2.6,9.4-4,14.5-4c8.5,0,18.5,5.3,23.1,12.3
			c2,3,3.9,7.6,1.8,12.8c-0.7,1.7,0.3,4,2.1,7.7c0.6,1.2,1.4,2.9,1.6,3.7C593,324.5,592.2,325,591.7,325.4z"/>
	</g>
	<g class="st2">
		<path class="st3" d="M543.8,287.9c-0.5-2-1.8-3.5-3.8-4.5c-0.9-0.5-2-0.1-2.4,0.8c-0.5,0.9-0.1,2,0.8,2.4c1.1,0.6,1.7,1.3,2,2.3
			c0.4,1.6-0.2,3.3-0.5,3.7c-0.5,0.8-0.3,1.9,0.5,2.5c0.3,0.2,0.6,0.3,1,0.3c0.6,0,1.2-0.3,1.5-0.8
			C543.6,293.2,544.5,290.5,543.8,287.9z"/>
	</g>
	<g class="st2">
		<path class="st3" d="M535,263.7c-1,0-1.8,0.8-1.8,1.8v5.1c0,1,0.8,1.8,1.8,1.8s1.8-0.8,1.8-1.8v-5.1
			C536.8,264.5,536,263.7,535,263.7z"/>
	</g>
	<g class="st2">
		<path class="st3" d="M515.2,288.7h-5.1c-1,0-1.8,0.8-1.8,1.8s0.8,1.8,1.8,1.8h5.1c1,0,1.8-0.8,1.8-1.8S516.2,288.7,515.2,288.7z"
			/>
	</g>
	<g class="st2">
		<path class="st3" d="M526.6,272.4l-2.5-4.4c-0.5-0.9-1.6-1.1-2.4-0.7c-0.9,0.5-1.1,1.6-0.7,2.4l2.5,4.4c0.3,0.6,0.9,0.9,1.5,0.9
			c0.3,0,0.6-0.1,0.9-0.2C526.8,274.3,527.1,273.2,526.6,272.4z"/>
	</g>
	<g class="st2">
		<path class="st3" d="M518.7,279l-4.4-2.5c-0.9-0.5-1.9-0.2-2.4,0.7c-0.5,0.9-0.2,1.9,0.7,2.4l4.4,2.5c0.3,0.2,0.6,0.2,0.9,0.2
			c0.6,0,1.2-0.3,1.5-0.9C519.9,280.6,519.6,279.5,518.7,279z"/>
	</g>
	<g class="st2">
		<path class="st3" d="M558.1,277.1c-0.5-0.9-1.6-1.1-2.4-0.7l-4.4,2.5c-0.9,0.5-1.1,1.6-0.7,2.4c0.3,0.6,0.9,0.9,1.5,0.9
			c0.3,0,0.6-0.1,0.9-0.2l4.4-2.5C558.3,279.1,558.6,278,558.1,277.1z"/>
	</g>
	<g class="st2">
		<path class="st3" d="M519.4,299.5c-0.5-0.9-1.6-1.1-2.4-0.7l-4.4,2.5c-0.9,0.5-1.1,1.6-0.7,2.4c0.3,0.6,0.9,0.9,1.5,0.9
			c0.3,0,0.6-0.1,0.9-0.2l4.4-2.5C519.6,301.4,519.9,300.3,519.4,299.5z"/>
	</g>
	<g class="st2">
		<path class="st3" d="M525.6,306.7c-0.9-0.5-1.9-0.2-2.4,0.7l-2.2,3.8c-0.5,0.9-0.2,1.9,0.7,2.4c0.3,0.2,0.6,0.2,0.9,0.2
			c0.6,0,1.2-0.3,1.5-0.9l2.2-3.8C526.8,308.3,526.5,307.2,525.6,306.7z"/>
	</g>
	<g class="st2">
		<path class="st3" d="M548.4,267.3c-0.9-0.5-1.9-0.2-2.4,0.7l-2.5,4.4c-0.5,0.9-0.2,1.9,0.7,2.4c0.3,0.2,0.6,0.2,0.9,0.2
			c0.6,0,1.2-0.3,1.5-0.9l2.5-4.4C549.5,268.9,549.2,267.8,548.4,267.3z"/>
	</g>
	<g class="st2">
		<g>
			<path class="st3" d="M544.3,670c0.2,0.4,0.7,0.7,1.2,0.7c0.2,0,0.4,0,0.6-0.1c0.1,0,7.7-3.9,11.5-5.1c0.7-0.2,1.1-0.9,0.8-1.6
				c-0.2-0.7-0.9-1.1-1.6-0.8c-4,1.3-11.6,5.1-11.9,5.3C544.3,668.6,544,669.4,544.3,670z"/>
			<path class="st3" d="M545.5,655.1c0.2,0,0.4,0,0.6-0.1c0.1,0,7.7-3.9,11.5-5.1c0.7-0.2,1.1-0.9,0.8-1.6c-0.2-0.7-0.9-1.1-1.6-0.8
				c-4,1.3-11.6,5.1-11.9,5.3c-0.6,0.3-0.9,1.1-0.6,1.7C544.6,654.8,545,655.1,545.5,655.1z"/>
			<path class="st3" d="M576.7,652.5c-0.7,0-1.3,0.6-1.3,1.3v50.7c0,2.2-1.7,3.9-3.9,3.9h-31.2v-3c1.9-0.7,6.8-2.2,11.7-2.2
				c11.3,0,19,2.5,19.1,2.5c0.4,0.1,0.8,0.1,1.2-0.2c0.3-0.2,0.5-0.6,0.5-1.1v-57.2c0-0.6-0.4-1.1-1-1.3c0,0-1-0.2-2.8-0.5
				c-0.7-0.1-1.4,0.3-1.5,1s0.3,1.4,1,1.5s1.2,0.2,1.6,0.3v54.4c-2.9-0.8-9.5-2.2-18.2-2.2c-5.7,0-11.2,1.9-13,2.5
				c-1.5-0.7-6.2-2.5-11.8-2.5c-9,0-16.3,1.5-19.5,2.2v-54.5c2.6-0.6,10.3-2.3,19.5-2.3c4.7,0,8.8,1.5,10.4,2.1v51.2
				c0,0.5,0.3,0.9,0.7,1.1c0.4,0.2,0.9,0.2,1.3,0c0.1-0.1,13-7.8,24.4-11.6c0.5-0.2,0.9-0.7,0.9-1.2v-53.3c0-0.4-0.2-0.8-0.6-1.1
				c-0.3-0.2-0.8-0.3-1.2-0.1c-10.4,3.9-20.9,10.5-21,10.5c-0.6,0.4-0.8,1.2-0.4,1.8c0.4,0.6,1.2,0.8,1.8,0.4
				c0.1-0.1,9.3-5.8,18.8-9.6v50.5c-8.9,3.1-18.1,8.1-22.1,10.4v-49.7c0-0.5-0.3-0.9-0.7-1.2c-0.2-0.1-5.6-2.7-12.3-2.7
				c-11.7,0-20.8,2.5-21.2,2.7c-0.6,0.2-0.9,0.7-0.9,1.2v57.2c0,0.4,0.2,0.8,0.5,1c0.2,0.2,0.5,0.3,0.8,0.3c0.1,0,0.2,0,0.4-0.1
				c0.1,0,9.1-2.5,20.4-2.5c4.8,0,8.8,1.5,10.4,2.1v3.1h-31.2c-2.2,0-3.9-1.7-3.9-3.9v-50.7c0-0.7-0.6-1.3-1.3-1.3
				c-0.7,0-1.3,0.6-1.3,1.3v50.7c0,3.6,2.9,6.5,6.5,6.5h65c3.6,0,6.5-2.9,6.5-6.5v-50.7C578,653.1,577.4,652.5,576.7,652.5z"/>
			<path class="st3" d="M544.3,662.2c0.2,0.4,0.7,0.7,1.2,0.7c0.2,0,0.4,0,0.6-0.1c0.1,0,7.7-3.9,11.5-5.1c0.7-0.2,1.1-0.9,0.8-1.6
				c-0.2-0.7-0.9-1.1-1.6-0.8c-4,1.3-11.6,5.1-11.9,5.3C544.3,660.8,544,661.6,544.3,662.2z"/>
			<path class="st3" d="M544.3,677.8c0.2,0.4,0.7,0.7,1.2,0.7c0.2,0,0.4,0,0.6-0.1c0.1,0,7.7-3.9,11.5-5.1c0.7-0.2,1.1-0.9,0.8-1.6
				c-0.2-0.7-0.9-1.1-1.6-0.8c-4,1.3-11.6,5.1-11.9,5.3C544.3,676.4,544,677.2,544.3,677.8z"/>
			<path class="st3" d="M531.5,657.1c-8-1.9-17.2,0.5-17.5,0.6c-0.7,0.2-1.1,0.9-0.9,1.6c0.2,0.6,0.7,1,1.3,1c0.1,0,0.2,0,0.3,0
				s8.9-2.3,16.3-0.6c0.7,0.2,1.4-0.3,1.6-1C532.6,658,532.2,657.3,531.5,657.1z"/>
			<path class="st3" d="M531.5,664.9c-8-1.9-17.2,0.5-17.5,0.6c-0.7,0.2-1.1,0.9-0.9,1.6c0.2,0.6,0.7,1,1.3,1c0.1,0,0.2,0,0.3,0
				s8.9-2.3,16.3-0.6c0.7,0.2,1.4-0.3,1.6-1C532.6,665.8,532.2,665.1,531.5,664.9z"/>
			<path class="st3" d="M544.3,685.6c0.2,0.4,0.7,0.7,1.2,0.7c0.2,0,0.4,0,0.6-0.1c0.1,0,7.7-3.9,11.5-5.1c0.7-0.2,1.1-0.9,0.8-1.6
				c-0.2-0.7-0.9-1.1-1.6-0.8c-4,1.3-11.6,5.1-11.9,5.3C544.3,684.2,544,685,544.3,685.6z"/>
			<path class="st3" d="M531.5,672.7c-8-1.9-17.2,0.5-17.5,0.6c-0.7,0.2-1.1,0.9-0.9,1.6c0.2,0.6,0.7,1,1.3,1c0.1,0,0.2,0,0.3,0
				s8.9-2.3,16.3-0.6c0.7,0.2,1.4-0.3,1.6-1C532.6,673.6,532.2,672.9,531.5,672.7z"/>
			<path class="st3" d="M531.5,688.3c-8-1.9-17.2,0.5-17.5,0.6c-0.7,0.2-1.1,0.9-0.9,1.6c0.2,0.6,0.7,1,1.3,1c0.1,0,0.2,0,0.3,0
				s8.9-2.3,16.3-0.6c0.7,0.2,1.4-0.3,1.6-1C532.6,689.2,532.2,688.5,531.5,688.3z"/>
			<path class="st3" d="M531.5,680.5c-8-1.9-17.2,0.5-17.5,0.6c-0.7,0.2-1.1,0.9-0.9,1.6c0.2,0.6,0.7,1,1.3,1c0.1,0,0.2,0,0.3,0
				s8.9-2.3,16.3-0.6c0.7,0.2,1.4-0.3,1.6-1C532.6,681.4,532.2,680.7,531.5,680.5z"/>
		</g>
	</g>
	<g class="st2">
		<path class="st3" d="M169.6,648.5c-15,0-27.2,12.2-27.2,27.2c0.1,9.8,4.9,18.9,12.8,24.7V720c0,0.2,0.1,0.4,0.1,0.7v0.2
			c0,0.1,0.1,0.2,0.1,0.2l6.8,10.1c0.4,0.5,1,0.8,1.6,0.8H175c0.6,0,1.2-0.3,1.6-0.8l6.8-10.1c0-0.1,0.1-0.2,0.1-0.2v-0.2
			c0.1-0.2,0.1-0.4,0.1-0.7v-19.6c7.9-5.7,12.7-14.9,12.8-24.7C196.6,660.8,184.5,648.7,169.6,648.5z M174.2,728.2H165l-4.2-6.2
			h17.5L174.2,728.2z M159.2,718.1V713h20.9v5.1H159.2z M181,697.8L181,697.8c-0.5,0.4-0.9,1-0.9,1.7v9.8h-20.9v-9.9
			c0-0.7-0.3-1.3-0.9-1.6c-7.4-4.9-11.9-13.2-12-22c0.4-12.9,11.1-23,24-22.6c12.4,0.4,22.3,10.3,22.6,22.6
			C192.8,684.6,188.3,692.8,181,697.8z"/>
	</g>
	<g class="st2">
		<path class="st3" d="M170.4,657.3c-1.1,0-1.9,0.9-1.9,1.9c0,1.1,0.9,1.9,1.9,1.9c8,0,14.5,6.5,14.5,14.5c0,1.1,0.9,1.9,1.9,1.9
			c1.1,0,1.9-0.9,1.9-1.9C188.7,665.5,180.5,657.3,170.4,657.3z"/>
	</g>
	<g class="st2">
		<path class="st3" d="M137.3,673.7h-13.9c-1.1,0-1.9,0.9-1.9,1.9c0,1.1,0.9,1.9,1.9,1.9h13.9c1.1,0,1.9-0.9,1.9-1.9l0,0
			C139.2,674.6,138.3,673.7,137.3,673.7z"/>
	</g>
	<g class="st2">
		<path class="st3" d="M215.8,673.7H202c-1.1,0-1.9,0.9-1.9,1.9c0,1.1,0.9,1.9,1.9,1.9h13.9c1.1,0,1.9-0.9,1.9-1.9
			C217.8,674.6,216.9,673.7,215.8,673.7z"/>
	</g>
	<g class="st2">
		<path class="st3" d="M148.3,697.2c-0.7-0.8-1.9-0.9-2.7-0.2c-0.1,0.1-0.1,0.1-0.2,0.2l0,0l-9.8,9.9c-0.8,0.7-0.9,1.9-0.2,2.7
			s1.9,0.9,2.7,0.2c0.1-0.1,0.1-0.1,0.2-0.2l9.8-9.8C148.9,699.2,149,698,148.3,697.2z"/>
	</g>
	<g class="st2">
		<path class="st3" d="M203.5,641.5c-0.7-0.6-1.8-0.6-2.5,0l-9.8,9.8c-0.8,0.7-0.8,2,0,2.7c0.4,0.4,0.9,0.6,1.4,0.6l0,0
			c0.5,0,1-0.2,1.4-0.6l9.8-9.8C204.4,643.4,204.3,642.2,203.5,641.5z"/>
	</g>
	<g class="st2">
		<path class="st3" d="M204.1,707.4c-0.1-0.1-0.2-0.3-0.4-0.4l-9.8-9.9c-0.7-0.8-1.9-0.9-2.7-0.2s-0.9,1.9-0.2,2.7
			c0.1,0.1,0.1,0.1,0.2,0.2l9.8,9.8c0.6,0.9,1.8,1,2.7,0.4C204.5,709.5,204.7,708.3,204.1,707.4z"/>
	</g>
	<g class="st2">
		<path class="st3" d="M148.1,651.4l-9.8-9.8c-0.8-0.7-2-0.6-2.7,0.2c-0.6,0.7-0.6,1.8,0,2.5l9.8,9.8c0.8,0.7,2,0.6,2.7-0.2
			C148.7,653.2,148.7,652.1,148.1,651.4z"/>
	</g>
	<g class="st2">
		<path class="st3" d="M169.6,628.1c-1.1,0-1.9,0.9-1.9,1.9v13.9c0,1.1,0.8,2,1.9,2c0,0,0,0,0.1,0c1.1,0,1.9-0.9,1.9-1.9v-14
			C171.5,628.9,170.7,628.1,169.6,628.1z"/>
	</g>
	<path class="st4" d="M358.4,723.6c-1-3.2-2.8-6.2-5.2-8.6L303,664.8c-0.7-0.7-1.9-0.7-2.7,0l-0.3,0.3l-4-4c-1.1-1.1-2.5-1.7-4-1.7
		s-3,0.6-4,1.7l-2.3,2.4c-2.2,2.2-2.2,5.8,0,8l4,4l-1.5,1.5c-1.8,1.8-2.8,4.2-2.8,6.7s1,4.9,2.8,6.7l15.1,15.1
		c0.7,0.7,1.9,0.7,2.7,0c0.7-0.7,0.7-1.9,0-2.7l-15.1-15.1c-2.2-2.2-2.2-5.7-0.1-7.9l22.7,22.7l4.1,4.1l2.7,2.7l19.5,19.5
		c2.4,2.4,5.3,4.2,8.6,5.2l11.4,3.5c0.7,0.2,1.4,0,1.9-0.5s0.7-1.2,0.5-1.9L358.4,723.6z M288.3,666.1l2.3-2.4
		c0.4-0.4,0.8-0.6,1.3-0.6s1,0.2,1.3,0.6l4,4l-5,5l-4-4C287.6,668,287.6,666.8,288.3,666.1z M293.4,677.1l8.2-8.2l20.1,20.1
		l-8.2,8.2L293.4,677.1z M316.1,699.8l8.2-8.2l4,4l-8.2,8.2L316.1,699.8z M322.8,706.5l8.2-8.2l19.5,19.5c0.2,0.2,0.4,0.4,0.6,0.6
		l-8.2,8.2c-0.2-0.2-0.4-0.4-0.6-0.6L322.8,706.5z M349.3,730.2c-1.1-0.4-2.2-0.8-3.3-1.4l7.3-7.3c0.6,1,1.1,2.1,1.4,3.3l2.5,7.9
		L349.3,730.2z"/>
	<path class="st4" d="M718.7,163H714v-8.4c0-2-1.6-3.6-3.6-3.6H706v-3.2l-0.7-0.7l0,0l-9.7-9.7L685.2,127h-32.6v14.7h-7
		c-2,0-3.6,1.6-3.6,3.6v58.2l0,0c0,0.8,0.2,1.5,0.7,2.1c0.7,0.9,1.6,1.3,2.7,1.3h59.7c1.5,0,2.9-1,3.3-2.4l13.6-37.4V167
		C722,164.7,720.6,163,718.7,163z M710.4,153.7c0.5,0,1,0.4,1,1v8.4H706v-9.3L710.4,153.7L710.4,153.7z M686,131.6l15.4,15.4H686
		V131.6z M655.3,129.7h28v20h20v1.3v12H659c-0.2,0-0.4,0-0.6,0c-1.3,0.2-2.4,1.2-2.7,2.4l-0.4,1v-24.8V129.7z M644.7,145.3
		c0-0.5,0.4-1,1-1h7v29.4l-8,21.8V145.3z M705.8,203.8c-0.1,0.3-0.4,0.6-0.7,0.6h-59.7c-0.3,0-0.5-0.2-0.6-0.3s-0.2-0.3-0.2-0.5
		l8-22l0,0l5.5-15.2v-0.1c0.1-0.3,0.4-0.6,0.7-0.6h44.4h2.7h8h4.7c0.5,0,0.6,0.7,0.7,1.1L705.8,203.8z"/>
	<path class="st4" d="M663.3,149.7h13.3c0.7,0,1.3-0.6,1.3-1.3s-0.6-1.3-1.3-1.3h-13.3c-0.7,0-1.3,0.6-1.3,1.3
		S662.6,149.7,663.3,149.7z"/>
	<path class="st4" d="M663.3,140.3h13.3c0.7,0,1.3-0.6,1.3-1.3s-0.6-1.3-1.3-1.3h-13.3c-0.7,0-1.3,0.6-1.3,1.3
		S662.6,140.3,663.3,140.3z"/>
	<path class="st4" d="M663.3,159h32c0.7,0,1.3-0.6,1.3-1.3s-0.6-1.3-1.3-1.3h-32c-0.7,0-1.3,0.6-1.3,1.3S662.6,159,663.3,159z"/>
	<path class="st4" d="M585.9,519.5h-7.8v-3.4c0-0.6-0.5-1.1-1.1-1.1h-7.8c-0.6,0-1.1,0.5-1.1,1.1v3.4h-24.6v-3.4
		c0-0.6-0.5-1.1-1.1-1.1h-7.8c-0.6,0-1.1,0.5-1.1,1.1v3.4h-7.8c-0.6,0-1.1,0.5-1.1,1.1v12.3v48c0,0.6,0.5,1.1,1.1,1.1H586
		c0.6,0,1.1-0.5,1.1-1.1v-48v-12.3C587,520,586.5,519.5,585.9,519.5z M570.3,517.2h5.6v3.3v3.4h-5.6v-3.4V517.2z M535.6,517.2h5.6
		v3.3v3.4h-5.6v-3.4V517.2z M526.7,521.7h6.7v3.3c0,0.6,0.5,1.1,1.1,1.1h7.8c0.6,0,1.1-0.5,1.1-1.1v-3.3H568v3.3
		c0,0.6,0.5,1.1,1.1,1.1h7.8c0.6,0,1.1-0.5,1.1-1.1v-3.3h6.7v10h-58.1v-10H526.7z M526.7,579.8V534h58.1v45.8H526.7z"/>
	<path class="st4" d="M564.7,540.7h-7.8h-2.2h-7.8h-2.2h-10v10v2.2v7.8v2.2v10h10h2.2h7.8h2.2h7.8h2.2h10v-10v-2.2V553v-2.2v-10h-10
		L564.7,540.7L564.7,540.7z M556.8,542.9h7.8v7.8h-7.8V542.9z M564.7,560.8h-7.8V553h7.8V560.8z M546.8,553h7.8v7.8h-7.8V553z
		 M546.8,542.9h7.8v7.8h-7.8V542.9z M536.8,542.9h7.8v7.8h-7.8V542.9z M536.8,553h7.8v7.8h-7.8V553z M544.6,570.8h-7.8V563h7.8
		V570.8z M554.6,570.8h-7.8V563h7.8V570.8z M564.7,570.8h-7.8V563h7.8V570.8z M574.7,570.8h-7.8V563h7.8V570.8z M574.7,560.8h-7.8
		V553h7.8V560.8z M574.7,542.9v7.8h-7.8v-7.8H574.7z"/>
	<g class="st2">
		<path class="st3" d="M273.6,576.4c-6,0-10.9,4.9-10.9,10.9c0.1,3.9,2,7.6,5.2,9.9v7.9c0,0.1,0,0.2,0.1,0.3v0.1v0.1l2.7,4.1
			c0.1,0.2,0.4,0.3,0.6,0.3h4.5c0.3,0,0.5-0.1,0.6-0.3l2.7-4.1v-0.1v-0.1c0-0.1,0.1-0.2,0.1-0.3v-7.9c3.2-2.3,5.1-6,5.2-9.9
			C284.5,581.3,279.6,576.4,273.6,576.4z M275.5,608.4h-3.7l-1.7-2.5h7.1L275.5,608.4z M269.4,604.4v-2.1h8.4v2.1H269.4z
			 M278.2,596.2L278.2,596.2c-0.2,0.2-0.4,0.4-0.3,0.7v3.9h-8.4v-4c0-0.3-0.1-0.5-0.3-0.7c-3-2-4.8-5.3-4.8-8.9
			c0.1-5.2,4.5-9.3,9.7-9.1c5,0.1,9,4.1,9.1,9.1C283,590.8,281.2,594.2,278.2,596.2z"/>
	</g>
	<g class="st2">
		<path class="st3" d="M273.9,579.9c-0.4,0-0.8,0.3-0.8,0.8c0,0.4,0.3,0.8,0.8,0.8c3.2,0,5.8,2.6,5.8,5.8c0,0.4,0.3,0.8,0.8,0.8
			c0.4,0,0.8-0.3,0.8-0.8C281.3,583.2,278,579.9,273.9,579.9z"/>
	</g>
	<g class="st2">
		<path class="st3" d="M260.6,586.5H255c-0.4,0-0.8,0.3-0.8,0.8c0,0.4,0.3,0.8,0.8,0.8h5.6c0.4,0,0.8-0.3,0.8-0.8l0,0
			C261.4,586.8,261,586.5,260.6,586.5z"/>
	</g>
	<g class="st2">
		<path class="st3" d="M292.2,586.5h-5.6c-0.4,0-0.8,0.3-0.8,0.8c0,0.4,0.3,0.8,0.8,0.8h5.6c0.4,0,0.8-0.3,0.8-0.8
			S292.7,586.5,292.2,586.5z"/>
	</g>
	<g class="st2">
		<path class="st3" d="M265,595.9c-0.3-0.3-0.8-0.4-1.1-0.1l-0.1,0.1l0,0l-4,4c-0.3,0.3-0.4,0.8-0.1,1.1s0.8,0.4,1.1,0.1l0.1-0.1
			l4-4C265.3,596.7,265.3,596.3,265,595.9z"/>
	</g>
	<g class="st2">
		<path class="st3" d="M287.3,573.5c-0.3-0.2-0.7-0.2-1,0l-4,4c-0.3,0.3-0.3,0.8,0,1.1c0.1,0.1,0.3,0.2,0.6,0.2l0,0
			c0.2,0,0.4-0.1,0.6-0.2l4-4C287.6,574.3,287.6,573.8,287.3,573.5z"/>
	</g>
	<g class="st2">
		<path class="st3" d="M287.5,600.1c0-0.1-0.1-0.1-0.2-0.2l-4-4c-0.3-0.3-0.8-0.4-1.1-0.1s-0.4,0.8-0.1,1.1l0.1,0.1l4,4
			c0.3,0.3,0.7,0.4,1.1,0.2C287.7,600.9,287.7,600.4,287.5,600.1z"/>
	</g>
	<g class="st2">
		<path class="st3" d="M264.9,577.5l-4-4c-0.3-0.3-0.8-0.2-1.1,0.1c-0.2,0.3-0.2,0.7,0,1l4,4c0.3,0.3,0.8,0.2,1.1-0.1
			S265.2,577.8,264.9,577.5z"/>
	</g>
	<g class="st2">
		<path class="st3" d="M273.6,568.1c-0.4,0-0.8,0.3-0.8,0.8v5.6c0,0.4,0.3,0.8,0.8,0.8l0,0c0.4,0,0.8-0.3,0.8-0.8v-5.6
			C274.4,568.4,274,568.1,273.6,568.1z"/>
	</g>
	<g class="st2">
		<g>
			<path class="st3" d="M453.1,642.3h-0.9c-0.3,0-0.5,0.2-0.5,0.5s0.2,0.5,0.5,0.5h0.9c0.3,0,0.5-0.2,0.5-0.5
				S453.3,642.3,453.1,642.3z"/>
			<path class="st3" d="M453.1,644.2h-0.9c-0.3,0-0.5,0.2-0.5,0.5s0.2,0.5,0.5,0.5h0.9c0.3,0,0.5-0.2,0.5-0.5
				C453.5,644.4,453.3,644.2,453.1,644.2z"/>
			<path class="st3" d="M453.1,640.5h-0.9c-0.3,0-0.5,0.2-0.5,0.5s0.2,0.5,0.5,0.5h0.9c0.3,0,0.5-0.2,0.5-0.5
				C453.5,640.7,453.3,640.5,453.1,640.5z"/>
			<path class="st3" d="M453.1,655.4h-0.9c-0.3,0-0.5,0.2-0.5,0.5s0.2,0.5,0.5,0.5h0.9c0.3,0,0.5-0.2,0.5-0.5
				S453.3,655.4,453.1,655.4z"/>
			<path class="st3" d="M442.8,640.5H440c-0.3,0-0.5,0.2-0.5,0.5v6.5c0,0.3,0.2,0.5,0.5,0.5h2.8c0.3,0,0.5-0.2,0.5-0.5V641
				C443.3,640.7,443.1,640.5,442.8,640.5z M442.3,647h-1.9v-5.6h1.9V647z"/>
			<path class="st3" d="M442.8,655.4H440c-0.3,0-0.5,0.2-0.5,0.5s0.2,0.5,0.5,0.5h2.8c0.3,0,0.5-0.2,0.5-0.5
				S443.1,655.4,442.8,655.4z"/>
			<path class="st3" d="M442.8,657.3H440c-0.3,0-0.5,0.2-0.5,0.5s0.2,0.5,0.5,0.5h2.8c0.3,0,0.5-0.2,0.5-0.5
				S443.1,657.3,442.8,657.3z"/>
			<path class="st3" d="M453.1,657.3h-0.9c-0.3,0-0.5,0.2-0.5,0.5s0.2,0.5,0.5,0.5h0.9c0.3,0,0.5-0.2,0.5-0.5
				C453.5,657.5,453.3,657.3,453.1,657.3z"/>
			<path class="st3" d="M458.7,657.3h-1.9c-0.3,0-0.5,0.2-0.5,0.5s0.2,0.5,0.5,0.5h1.9c0.3,0,0.5-0.2,0.5-0.5
				C459.1,657.5,458.9,657.3,458.7,657.3z"/>
			<path class="st3" d="M448.9,640.9c0-0.3-0.2-0.5-0.5-0.5h-1.9c-0.3,0-0.5,0.2-0.5,0.5v6.5c0,0.3,0.2,0.5,0.5,0.5h1.9
				c0.3,0,0.5-0.2,0.5-0.5V640.9z M447.9,647H447v-5.6h0.9V647z"/>
			<path class="st3" d="M458.7,655.4h-1.9c-0.3,0-0.5,0.2-0.5,0.5s0.2,0.5,0.5,0.5h1.9c0.3,0,0.5-0.2,0.5-0.5
				S458.9,655.4,458.7,655.4z"/>
			<path class="st3" d="M448.4,657.3h-1.9c-0.3,0-0.5,0.2-0.5,0.5s0.2,0.5,0.5,0.5h1.9c0.3,0,0.5-0.2,0.5-0.5
				S448.7,657.3,448.4,657.3z"/>
			<path class="st3" d="M456.8,649.8c0.3,0,0.5-0.2,0.5-0.5v-4.7c0-0.3-0.2-0.5-0.5-0.5s-0.5,0.2-0.5,0.5v4.7
				C456.3,649.6,456.5,649.8,456.8,649.8z"/>
			<path class="st3" d="M459.1,644.7c0-0.3-0.2-0.5-0.5-0.5s-0.5,0.2-0.5,0.5v4.7c0,0.3,0.2,0.5,0.5,0.5s0.5-0.2,0.5-0.5V644.7z"/>
			<path class="st3" d="M459.6,636.7h-2.8c-0.3,0-0.5,0.2-0.5,0.5s0.2,0.5,0.5,0.5h2.8c0.3,0,0.5,0.2,0.5,0.5v21.5
				c0,0.3-0.2,0.5-0.5,0.5h-4.2v-19.6h2.8c0.3,0,0.5-0.2,0.5-0.5s-0.2-0.5-0.5-0.5h-2.8v-4.2c0-0.8-0.6-1.4-1.4-1.4h-2.8
				c-0.8,0-1.4,0.6-1.4,1.4v24.7h-4.7v-24.3h3.3c0.3,0,0.5-0.2,0.5-0.5s-0.2-0.5-0.5-0.5h-3.3v-0.5c0-0.8-0.6-1.4-1.4-1.4H439
				c-0.8,0-1.4,0.6-1.4,1.4v4.2h-2.3c-0.3,0-0.5,0.2-0.5,0.5s0.2,0.5,0.5,0.5h2.3V660h-3.3c-0.3,0-0.5-0.2-0.5-0.5v-22.4
				c0-0.3,0.2-0.5,0.5-0.5h1.9c0.3,0,0.5-0.2,0.5-0.5s-0.2-0.5-0.5-0.5h-1.9c-0.8,0-1.4,0.6-1.4,1.4v22.4c0,0.8,0.6,1.4,1.4,1.4
				h25.2c0.8,0,1.4-0.6,1.4-1.4v-21.5C461,637.4,460.4,636.7,459.6,636.7z M444.2,660.1h-5.6v-23.3h4.2c0.3,0,0.5-0.2,0.5-0.5
				s-0.2-0.5-0.5-0.5h-4.2v-1.4c0-0.3,0.2-0.5,0.5-0.5h4.7c0.3,0,0.5,0.2,0.5,0.5L444.2,660.1L444.2,660.1z M454.5,660.1h-3.7v-22.4
				h2.3c0.3,0,0.5-0.2,0.5-0.5s-0.2-0.5-0.5-0.5h-2.3v-1.4c0-0.3,0.2-0.5,0.5-0.5h2.8c0.3,0,0.5,0.2,0.5,0.5L454.5,660.1
				L454.5,660.1z"/>
			<path class="st3" d="M436.3,655.4h-0.9c-0.3,0-0.5,0.2-0.5,0.5s0.2,0.5,0.5,0.5h0.9c0.3,0,0.5-0.2,0.5-0.5
				S436.5,655.4,436.3,655.4z"/>
			<path class="st3" d="M436.3,657.3h-0.9c-0.3,0-0.5,0.2-0.5,0.5s0.2,0.5,0.5,0.5h0.9c0.3,0,0.5-0.2,0.5-0.5
				S436.5,657.3,436.3,657.3z"/>
			<path class="st3" d="M448.4,655.4h-1.9c-0.3,0-0.5,0.2-0.5,0.5s0.2,0.5,0.5,0.5h1.9c0.3,0,0.5-0.2,0.5-0.5
				S448.7,655.4,448.4,655.4z"/>
			<path class="st3" d="M436.3,644.2h-0.9c-0.3,0-0.5,0.2-0.5,0.5s0.2,0.5,0.5,0.5h0.9c0.3,0,0.5-0.2,0.5-0.5
				C436.7,644.4,436.5,644.2,436.3,644.2z"/>
			<path class="st3" d="M436.3,646.1h-0.9c-0.3,0-0.5,0.2-0.5,0.5s0.2,0.5,0.5,0.5h0.9c0.3,0,0.5-0.2,0.5-0.5
				C436.7,646.3,436.5,646.1,436.3,646.1z"/>
		</g>
	</g>
	<path class="st4" d="M399.6,682.1c-0.4-1.2-1.1-2.4-2-3.3l-19.3-19.3c-0.3-0.3-0.7-0.3-1,0l-0.1,0.1l-1.5-1.5
		c-0.4-0.4-1-0.6-1.6-0.6s-1.1,0.2-1.6,0.6l-0.9,0.9c-0.8,0.9-0.8,2.2,0,3.1l1.5,1.5l-0.6,0.6c-0.7,0.7-1.1,1.6-1.1,2.6
		s0.4,1.9,1.1,2.6l5.8,5.8c0.3,0.3,0.7,0.3,1,0s0.3-0.7,0-1l-5.8-5.8c-0.8-0.8-0.9-2.2,0-3l8.7,8.7l1.6,1.6l1,1l7.5,7.5
		c0.9,0.9,2,1.6,3.3,2l4.4,1.4c0.3,0.1,0.5,0,0.7-0.2s0.3-0.5,0.2-0.7L399.6,682.1z M372.7,660l0.9-0.9c0.1-0.1,0.3-0.2,0.5-0.2
		s0.4,0.1,0.5,0.2l1.5,1.6l-1.9,1.9l-1.5-1.5C372.4,660.7,372.4,660.3,372.7,660z M374.6,664.2l3.2-3.2l7.7,7.7l-3.2,3.2
		L374.6,664.2z M383.4,672.9l3.2-3.2l1.5,1.5l-3.2,3.2L383.4,672.9z M385.9,675.5l3.2-3.2l7.5,7.5c0.1,0.1,0.1,0.2,0.2,0.2l-3.2,3.2
		c-0.1-0.1-0.2-0.1-0.2-0.2L385.9,675.5z M396.1,684.6c-0.4-0.1-0.9-0.3-1.3-0.5l2.8-2.8c0.2,0.4,0.4,0.8,0.5,1.3l0.9,3L396.1,684.6
		z"/>
	<g class="st2">
		<g>
			<path class="st3" d="M643.5,618.4c0.1,0.1,0.2,0.2,0.3,0.2s0.1,0,0.2,0c0,0,2.2-1.1,3.2-1.4c0.2-0.1,0.3-0.3,0.2-0.5
				s-0.3-0.3-0.5-0.2c-1.1,0.4-3.3,1.4-3.4,1.5C643.5,618,643.4,618.3,643.5,618.4z"/>
			<path class="st3" d="M643.8,614.2c0.1,0,0.1,0,0.2,0c0,0,2.2-1.1,3.2-1.4c0.2-0.1,0.3-0.3,0.2-0.5s-0.3-0.3-0.5-0.2
				c-1.1,0.4-3.3,1.4-3.4,1.5c-0.2,0.1-0.3,0.3-0.2,0.5C643.6,614.2,643.7,614.2,643.8,614.2z"/>
			<path class="st3" d="M652.6,613.5c-0.2,0-0.4,0.2-0.4,0.4v14.3c0,0.6-0.5,1.1-1.1,1.1h-8.8v-0.8c0.5-0.2,1.9-0.6,3.3-0.6
				c3.2,0,5.4,0.7,5.4,0.7c0.1,0,0.2,0,0.3-0.1s0.2-0.2,0.2-0.3V612c0-0.2-0.1-0.3-0.3-0.4c0,0-0.3-0.1-0.8-0.2
				c-0.2,0-0.4,0.1-0.4,0.3s0.1,0.4,0.3,0.4s0.3,0.1,0.5,0.1v15.3c-0.8-0.2-2.7-0.6-5.1-0.6c-1.6,0-3.2,0.5-3.7,0.7
				c-0.4-0.2-1.7-0.7-3.3-0.7c-2.5,0-4.6,0.4-5.5,0.6v-15.4c0.7-0.2,2.9-0.7,5.5-0.7c1.3,0,2.5,0.4,2.9,0.6v14.4
				c0,0.1,0.1,0.3,0.2,0.3c0.1,0.1,0.3,0.1,0.4,0c0,0,3.7-2.2,6.9-3.3c0.1-0.1,0.3-0.2,0.3-0.3v-15c0-0.1-0.1-0.2-0.2-0.3
				c-0.1-0.1-0.2-0.1-0.3,0c-2.9,1.1-5.9,2.9-5.9,3c-0.2,0.1-0.2,0.3-0.1,0.5c0.1,0.2,0.3,0.2,0.5,0.1c0,0,2.6-1.6,5.3-2.7v14.2
				c-2.5,0.9-5.1,2.3-6.2,2.9v-14c0-0.1-0.1-0.3-0.2-0.3c-0.1,0-1.6-0.8-3.5-0.8c-3.3,0-5.9,0.7-6,0.7c-0.2,0-0.3,0.2-0.3,0.4v16.1
				c0,0.1,0.1,0.2,0.1,0.3c0.1,0,0.1,0.1,0.2,0.1h0.1c0,0,2.6-0.7,5.8-0.7c1.3,0,2.5,0.4,2.9,0.6v0.9h-8.8c-0.6,0-1.1-0.5-1.1-1.1
				v-14.3c0-0.2-0.2-0.4-0.4-0.4s-0.4,0.2-0.4,0.4V628c0,1,0.8,1.8,1.8,1.8H651c1,0,1.8-0.8,1.8-1.8v-14.3
				C653,613.7,652.8,613.5,652.6,613.5z"/>
			<path class="st3" d="M643.5,616.2c0.1,0.1,0.2,0.2,0.3,0.2s0.1,0,0.2,0c0,0,2.2-1.1,3.2-1.4c0.2-0.1,0.3-0.3,0.2-0.5
				s-0.3-0.3-0.5-0.2c-1.1,0.4-3.3,1.4-3.4,1.5C643.5,615.8,643.4,616.1,643.5,616.2z"/>
			<path class="st3" d="M643.5,620.6c0.1,0.1,0.2,0.2,0.3,0.2s0.1,0,0.2,0c0,0,2.2-1.1,3.2-1.4c0.2-0.1,0.3-0.3,0.2-0.5
				s-0.3-0.3-0.5-0.2c-1.1,0.4-3.3,1.4-3.4,1.5C643.5,620.2,643.4,620.5,643.5,620.6z"/>
			<path class="st3" d="M639.9,614.8c-2.3-0.5-4.8,0.1-4.9,0.2c-0.2,0.1-0.3,0.3-0.3,0.4c0,0.2,0.2,0.3,0.4,0.3h0.1
				c0,0,2.5-0.7,4.6-0.2c0.2,0,0.4-0.1,0.4-0.3C640.2,615.1,640.1,614.9,639.9,614.8z"/>
			<path class="st3" d="M639.9,617c-2.3-0.5-4.8,0.1-4.9,0.2c-0.2,0.1-0.3,0.3-0.3,0.4c0,0.2,0.2,0.3,0.4,0.3h0.1
				c0,0,2.5-0.7,4.6-0.2c0.2,0,0.4-0.1,0.4-0.3C640.2,617.3,640.1,617.1,639.9,617z"/>
			<path class="st3" d="M643.5,622.8c0.1,0.1,0.2,0.2,0.3,0.2s0.1,0,0.2,0c0,0,2.2-1.1,3.2-1.4c0.2-0.1,0.3-0.3,0.2-0.5
				s-0.3-0.3-0.5-0.2c-1.1,0.4-3.3,1.4-3.4,1.5C643.5,622.4,643.4,622.7,643.5,622.8z"/>
			<path class="st3" d="M639.9,619.2c-2.3-0.5-4.8,0.1-4.9,0.2c-0.2,0.1-0.3,0.3-0.3,0.4c0,0.2,0.2,0.3,0.4,0.3h0.1
				c0,0,2.5-0.7,4.6-0.2c0.2,0,0.4-0.1,0.4-0.3C640.2,619.5,640.1,619.3,639.9,619.2z"/>
			<path class="st3" d="M639.9,623.6c-2.3-0.5-4.8,0.1-4.9,0.2c-0.2,0.1-0.3,0.3-0.3,0.4c0,0.2,0.2,0.3,0.4,0.3h0.1
				c0,0,2.5-0.7,4.6-0.2c0.2,0,0.4-0.1,0.4-0.3S640.1,623.7,639.9,623.6z"/>
			<path class="st3" d="M639.9,621.4c-2.3-0.5-4.8,0.1-4.9,0.2c-0.2,0.1-0.3,0.3-0.3,0.4c0,0.2,0.2,0.3,0.4,0.3h0.1
				c0,0,2.5-0.7,4.6-0.2c0.2,0,0.4-0.1,0.4-0.3C640.2,621.7,640.1,621.5,639.9,621.4z"/>
		</g>
	</g>
	<g class="st2">
		<g>
			<path class="st3" d="M551.5,458.7c-0.3-0.1-0.6,0.1-0.6,0.4l-0.5,2.1c-0.1,0.3,0.1,0.6,0.4,0.6h0.1c0.2,0,0.5-0.2,0.5-0.4
				l0.5-2.1C552,459.1,551.8,458.8,551.5,458.7z"/>
			<path class="st3" d="M545,448.1c0.1,0,0.1,0,0.2,0l5.9-2.4c0.3-0.1,0.4-0.4,0.3-0.7c-0.1-0.3-0.4-0.4-0.7-0.3L545,447l-14.9-6.2
				v-0.2c0-0.3-0.2-0.5-0.5-0.5s-0.5,0.2-0.5,0.5v0.5c0,0.2,0.1,0.4,0.3,0.5l15.5,6.4C544.9,448.1,544.9,448.1,545,448.1z"/>
			<path class="st3" d="M551.3,453.5c-0.1-0.3-0.4-0.4-0.7-0.2c-1,0.5-2.7,1.1-5.1,1.2v-4.8c0-0.3-0.2-0.5-0.5-0.5s-0.5,0.2-0.5,0.5
				v4.8c-6.6-0.2-8.8-4.2-9.1-4.9V446c0-0.3-0.2-0.5-0.5-0.5s-0.5,0.2-0.5,0.5v3.7c0,0.1,0,0.1,0,0.2c0.1,0.2,2.4,5.7,10.6,5.7
				c2.9,0,4.9-0.7,6.1-1.3C551.4,454.1,551.5,453.8,551.3,453.5z"/>
			<path class="st3" d="M553,459.3c-0.3,0-0.5,0.2-0.5,0.5v1.6c0,0.3,0.2,0.5,0.5,0.5s0.5-0.2,0.5-0.5v-1.6
				C553.5,459.5,553.3,459.3,553,459.3z"/>
			<path class="st3" d="M560.5,440.1c-0.3,0-0.5,0.2-0.5,0.5v0.2l-6.4,2.6v-1l7.1-3c0.2-0.1,0.3-0.3,0.3-0.5s-0.1-0.4-0.3-0.5
				l-15.5-6.4c-0.1-0.1-0.3-0.1-0.4,0l-15.5,6.4c-0.2,0.1-0.3,0.3-0.3,0.5s0.1,0.4,0.3,0.5l15.5,6.4c0.1,0,0.1,0,0.2,0s0.1,0,0.2,0
				l5.6-2.3c0.3-0.1,0.4-0.4,0.3-0.7c-0.1-0.3-0.4-0.4-0.7-0.3l-5.4,2.2l-14.1-5.8l14.1-5.8l14.1,5.8l-6.1,2.5l-5.9-2.2
				c0-0.1,0-0.2,0-0.3c0-0.9-0.9-1.6-2.1-1.6s-2.1,0.7-2.1,1.6s0.9,1.6,2.1,1.6c0.5,0,1-0.1,1.4-0.4l6.1,2.3v1.7l0,0v11.4
				c-0.6,0.2-1.1,0.8-1.1,1.5c0,0.9,0.7,1.6,1.6,1.6c0.9,0,1.6-0.7,1.6-1.6c0-0.7-0.4-1.3-1.1-1.5v-3c1.5-1.2,2.1-2.7,2.1-2.8
				c0-0.1,0-0.1,0-0.2v-3.7c0-0.3-0.2-0.5-0.5-0.5s-0.5,0.2-0.5,0.5v3.6c-0.1,0.2-0.4,0.9-1.1,1.6v-6.6l7.1-2.9
				c0.2-0.1,0.3-0.3,0.3-0.5v-0.5C561,440.3,560.8,440.1,560.5,440.1z M545,439.5c-0.7,0-1.1-0.3-1.1-0.5s0.4-0.5,1.1-0.5
				s1.1,0.3,1.1,0.5S545.7,439.5,545,439.5z M553,457.7c-0.3,0-0.5-0.2-0.5-0.5s0.2-0.5,0.5-0.5s0.5,0.2,0.5,0.5
				C553.5,457.4,553.3,457.7,553,457.7z"/>
			<path class="st3" d="M555.1,459.1c-0.1-0.3-0.4-0.5-0.6-0.4c-0.3,0.1-0.5,0.4-0.4,0.6l0.5,2.1c0.1,0.2,0.3,0.4,0.5,0.4h0.1
				c0.3-0.1,0.5-0.4,0.4-0.6L555.1,459.1z"/>
		</g>
	</g>
	<g class="st2">
		<g>
			<path class="st3" d="M380.1,476.3h-0.9c-0.3,0-0.5,0.2-0.5,0.5s0.2,0.5,0.5,0.5h0.9c0.3,0,0.5-0.2,0.5-0.5
				C380.5,476.5,380.3,476.3,380.1,476.3z"/>
			<path class="st3" d="M380.1,478.2h-0.9c-0.3,0-0.5,0.2-0.5,0.5s0.2,0.5,0.5,0.5h0.9c0.3,0,0.5-0.2,0.5-0.5
				C380.5,478.4,380.3,478.2,380.1,478.2z"/>
			<path class="st3" d="M380.1,474.5h-0.9c-0.3,0-0.5,0.2-0.5,0.5s0.2,0.5,0.5,0.5h0.9c0.3,0,0.5-0.2,0.5-0.5
				C380.5,474.7,380.3,474.5,380.1,474.5z"/>
			<path class="st3" d="M380.1,489.4h-0.9c-0.3,0-0.5,0.2-0.5,0.5s0.2,0.5,0.5,0.5h0.9c0.3,0,0.5-0.2,0.5-0.5
				C380.5,489.6,380.3,489.4,380.1,489.4z"/>
			<path class="st3" d="M369.8,474.5H367c-0.3,0-0.5,0.2-0.5,0.5v6.5c0,0.3,0.2,0.5,0.5,0.5h2.8c0.3,0,0.5-0.2,0.5-0.5V475
				C370.3,474.7,370.1,474.5,369.8,474.5z M369.3,481h-1.9v-5.6h1.9V481z"/>
			<path class="st3" d="M369.8,489.4H367c-0.3,0-0.5,0.2-0.5,0.5s0.2,0.5,0.5,0.5h2.8c0.3,0,0.5-0.2,0.5-0.5
				S370.1,489.4,369.8,489.4z"/>
			<path class="st3" d="M369.8,491.3H367c-0.3,0-0.5,0.2-0.5,0.5s0.2,0.5,0.5,0.5h2.8c0.3,0,0.5-0.2,0.5-0.5
				S370.1,491.3,369.8,491.3z"/>
			<path class="st3" d="M380.1,491.3h-0.9c-0.3,0-0.5,0.2-0.5,0.5s0.2,0.5,0.5,0.5h0.9c0.3,0,0.5-0.2,0.5-0.5
				C380.5,491.5,380.3,491.3,380.1,491.3z"/>
			<path class="st3" d="M385.7,491.3h-1.9c-0.3,0-0.5,0.2-0.5,0.5s0.2,0.5,0.5,0.5h1.9c0.3,0,0.5-0.2,0.5-0.5
				C386.1,491.5,385.9,491.3,385.7,491.3z"/>
			<path class="st3" d="M375.9,474.9c0-0.3-0.2-0.5-0.5-0.5h-1.9c-0.3,0-0.5,0.2-0.5,0.5v6.5c0,0.3,0.2,0.5,0.5,0.5h1.9
				c0.3,0,0.5-0.2,0.5-0.5V474.9z M374.9,481H374v-5.6h0.9V481z"/>
			<path class="st3" d="M385.7,489.4h-1.9c-0.3,0-0.5,0.2-0.5,0.5s0.2,0.5,0.5,0.5h1.9c0.3,0,0.5-0.2,0.5-0.5
				C386.1,489.6,385.9,489.4,385.7,489.4z"/>
			<path class="st3" d="M375.4,491.3h-1.9c-0.3,0-0.5,0.2-0.5,0.5s0.2,0.5,0.5,0.5h1.9c0.3,0,0.5-0.2,0.5-0.5
				S375.7,491.3,375.4,491.3z"/>
			<path class="st3" d="M383.8,483.8c0.3,0,0.5-0.2,0.5-0.5v-4.7c0-0.3-0.2-0.5-0.5-0.5s-0.5,0.2-0.5,0.5v4.7
				C383.3,483.6,383.5,483.8,383.8,483.8z"/>
			<path class="st3" d="M386.1,478.7c0-0.3-0.2-0.5-0.5-0.5s-0.5,0.2-0.5,0.5v4.7c0,0.3,0.2,0.5,0.5,0.5s0.5-0.2,0.5-0.5V478.7z"/>
			<path class="st3" d="M386.6,470.7h-2.8c-0.3,0-0.5,0.2-0.5,0.5s0.2,0.5,0.5,0.5h2.8c0.3,0,0.5,0.2,0.5,0.5v21.5
				c0,0.3-0.2,0.5-0.5,0.5h-4.2v-19.6h2.8c0.3,0,0.5-0.2,0.5-0.5s-0.2-0.5-0.5-0.5h-2.8v-4.2c0-0.8-0.6-1.4-1.4-1.4h-2.8
				c-0.8,0-1.4,0.6-1.4,1.4v24.7h-4.7v-24.3h3.3c0.3,0,0.5-0.2,0.5-0.5s-0.2-0.5-0.5-0.5h-3.3v-0.5c0-0.8-0.6-1.4-1.4-1.4H366
				c-0.8,0-1.4,0.6-1.4,1.4v4.2h-2.3c-0.3,0-0.5,0.2-0.5,0.5s0.2,0.5,0.5,0.5h2.3V494h-3.3c-0.3,0-0.5-0.2-0.5-0.5v-22.4
				c0-0.3,0.2-0.5,0.5-0.5h1.9c0.3,0,0.5-0.2,0.5-0.5s-0.2-0.5-0.5-0.5h-1.9c-0.8,0-1.4,0.6-1.4,1.4v22.4c0,0.8,0.6,1.4,1.4,1.4
				h25.2c0.8,0,1.4-0.6,1.4-1.4v-21.5C388,471.4,387.4,470.7,386.6,470.7z M371.2,494.1h-5.6v-23.3h4.2c0.3,0,0.5-0.2,0.5-0.5
				s-0.2-0.5-0.5-0.5h-4.2v-1.4c0-0.3,0.2-0.5,0.5-0.5h4.7c0.3,0,0.5,0.2,0.5,0.5L371.2,494.1L371.2,494.1z M381.5,494.1h-3.7v-22.4
				h2.3c0.3,0,0.5-0.2,0.5-0.5s-0.2-0.5-0.5-0.5h-2.3v-1.4c0-0.3,0.2-0.5,0.5-0.5h2.8c0.3,0,0.5,0.2,0.5,0.5L381.5,494.1
				L381.5,494.1z"/>
			<path class="st3" d="M363.3,489.4h-0.9c-0.3,0-0.5,0.2-0.5,0.5s0.2,0.5,0.5,0.5h0.9c0.3,0,0.5-0.2,0.5-0.5
				C363.7,489.6,363.5,489.4,363.3,489.4z"/>
			<path class="st3" d="M363.3,491.3h-0.9c-0.3,0-0.5,0.2-0.5,0.5s0.2,0.5,0.5,0.5h0.9c0.3,0,0.5-0.2,0.5-0.5
				C363.7,491.5,363.5,491.3,363.3,491.3z"/>
			<path class="st3" d="M375.4,489.4h-1.9c-0.3,0-0.5,0.2-0.5,0.5s0.2,0.5,0.5,0.5h1.9c0.3,0,0.5-0.2,0.5-0.5
				S375.7,489.4,375.4,489.4z"/>
			<path class="st3" d="M363.3,478.2h-0.9c-0.3,0-0.5,0.2-0.5,0.5s0.2,0.5,0.5,0.5h0.9c0.3,0,0.5-0.2,0.5-0.5
				C363.7,478.4,363.5,478.2,363.3,478.2z"/>
			<path class="st3" d="M363.3,480.1h-0.9c-0.3,0-0.5,0.2-0.5,0.5s0.2,0.5,0.5,0.5h0.9c0.3,0,0.5-0.2,0.5-0.5
				S363.5,480.1,363.3,480.1z"/>
		</g>
	</g>
	<g class="st2">
		<path class="st3" d="M687.7,301.7c-0.4-0.2-0.7-0.5-1.1-0.6c-2.1-1-4.2-1.2-6.3-0.6c-0.3,0.1-0.5,0.4-0.4,0.8
			c0.1,0.3,0.4,0.5,0.8,0.4c1.8-0.5,3.6-0.4,5.4,0.5c0.3,0.2,0.6,0.3,0.9,0.6c0.1,0.1,0.2,0.1,0.3,0.1c0.2,0,0.4-0.1,0.5-0.3
			C688,302.3,688,301.9,687.7,301.7z"/>
	</g>
	<g class="st2">
		<path class="st3" d="M693.3,309.8c-0.3-0.5-0.7-1.4-0.7-1.7c0.7-1.8,0.5-3.8-0.7-5.6c-1.9-2.8-5.7-4.8-9-4.8
			c-1.8,0-3.5,0.4-5.1,1.2c-0.5-2.5-2.6-4.3-5.2-4.3c-2.9,0-5.3,2.4-5.3,5.3c0,1.9,0.9,3.5,2.5,4.5c0.5,0.3,0.6,0.5,0.6,0.9v2.1v1.5
			c0,0.7,0.6,1.3,1.3,1.3h0.2c0.3,2.7,1.7,5.2,3.7,7c0,0.1,0.1,0.3-0.2,1.2c-0.2,0.7-0.5,1.4-0.7,2.1c-0.2,0.4-0.3,0.8-0.4,1.1
			c-0.1,0.2,0,0.4,0.1,0.6s0.3,0.3,0.5,0.3h8.8c0.3,0,0.7-0.1,0.9-0.7c0.1-0.3,0.2-0.6,0.3-0.9s0.2-1.1,0.4-1.2l0,0h0.1
			c0.9,0,1.7,0,2.3,0.1c2,0.1,3.1,0.2,4.2-1.3c0.5-0.8,0.5-1.9,0.4-3c0-0.6-0.1-1.2,0-1.7c0.1-0.1,0.4-0.3,0.5-0.4
			c0.6-0.4,1.1-0.8,1.1-1.4C694,311.2,693.7,310.7,693.3,309.8z M670.4,303.3c-1.2-0.7-1.9-2-1.9-3.5c0-2.2,1.8-4.1,4.1-4.1
			c2.2,0,4.1,1.8,4.1,4.1c0,1.4-0.7,2.7-1.9,3.5c-0.6,0.4-0.9,0.8-1.1,1.3h-1h-1C671.3,304.1,671,303.7,670.4,303.3z M673.5,305.9
			v0.9h-1.9v-0.9H673.5L673.5,305.9z M671.6,309C671.6,309,671.6,308.9,671.6,309v-0.9h1.9v0.9l0,0H671.6z M692.2,312
			c-0.5,0.4-1,0.7-1.1,1.2c-0.1,0.7-0.1,1.4,0,2.1c0,0.9,0.1,1.9-0.2,2.3c-0.6,0.9-1.1,0.9-3.1,0.8c-0.6,0-1.4-0.1-2.4-0.1
			c-0.4,0-1,0-1.4,0.8c-0.2,0.4-0.3,0.9-0.4,1.4c0,0.2-0.1,0.5-0.2,0.7h-7.7c0-0.1,0.1-0.1,0.1-0.2c0.9-2.2,1.5-3.9,0.6-4.6
			c-1.8-1.6-3-3.7-3.3-6.1h0.4c0.7,0,1.3-0.6,1.3-1.3v-1.5v-2.1c0-0.4,0.1-0.6,0.6-0.9c1.5-0.9,2.4-2.4,2.5-4.1
			c1.5-0.9,3.3-1.4,5-1.4c2.9,0,6.4,1.8,8,4.2c0.7,1,1.4,2.6,0.6,4.4c-0.2,0.6,0.1,1.4,0.7,2.7c0.2,0.4,0.5,1,0.6,1.3
			C692.6,311.7,692.3,311.9,692.2,312z"/>
	</g>
	<g class="st2">
		<path class="st3" d="M675.6,299c-0.2-0.7-0.6-1.2-1.3-1.6c-0.3-0.2-0.7,0-0.8,0.3c-0.2,0.3,0,0.7,0.3,0.8c0.4,0.2,0.6,0.4,0.7,0.8
			c0.1,0.5-0.1,1.1-0.2,1.3c-0.2,0.3-0.1,0.7,0.2,0.9c0.1,0.1,0.2,0.1,0.3,0.1c0.2,0,0.4-0.1,0.5-0.3
			C675.5,300.9,675.8,299.9,675.6,299z"/>
	</g>
	<g class="st2">
		<path class="st3" d="M672.5,290.7c-0.3,0-0.6,0.3-0.6,0.6v1.8c0,0.3,0.3,0.6,0.6,0.6s0.6-0.3,0.6-0.6v-1.8
			C673.2,290.9,672.9,290.7,672.5,290.7z"/>
	</g>
	<g class="st2">
		<path class="st3" d="M665.7,299.3h-1.8c-0.3,0-0.6,0.3-0.6,0.6c0,0.3,0.3,0.6,0.6,0.6h1.8c0.3,0,0.6-0.3,0.6-0.6
			C666.3,299.6,666,299.3,665.7,299.3z"/>
	</g>
	<g class="st2">
		<path class="st3" d="M669.6,293.7l-0.9-1.5c-0.2-0.3-0.5-0.4-0.8-0.2c-0.3,0.2-0.4,0.5-0.2,0.8l0.9,1.5c0.1,0.2,0.3,0.3,0.5,0.3
			c0.1,0,0.2,0,0.3-0.1C669.7,294.3,669.8,293.9,669.6,293.7z"/>
	</g>
	<g class="st2">
		<path class="st3" d="M666.9,295.9l-1.5-0.9c-0.3-0.2-0.7-0.1-0.8,0.2c-0.2,0.3-0.1,0.7,0.2,0.8l1.5,0.9c0.1,0.1,0.2,0.1,0.3,0.1
			c0.2,0,0.4-0.1,0.5-0.3C667.3,296.5,667.2,296.1,666.9,295.9z"/>
	</g>
	<g class="st2">
		<path class="st3" d="M680.5,295.3c-0.2-0.3-0.5-0.4-0.8-0.2l-1.5,0.9c-0.3,0.2-0.4,0.5-0.2,0.8c0.1,0.2,0.3,0.3,0.5,0.3
			c0.1,0,0.2,0,0.3-0.1l1.5-0.9C680.6,296,680.7,295.6,680.5,295.3z"/>
	</g>
	<g class="st2">
		<path class="st3" d="M667.1,303c-0.2-0.3-0.5-0.4-0.8-0.2l-1.5,0.9c-0.3,0.2-0.4,0.5-0.2,0.8c0.1,0.2,0.3,0.3,0.5,0.3
			c0.1,0,0.2,0,0.3-0.1l1.5-0.9C667.2,303.7,667.3,303.3,667.1,303z"/>
	</g>
	<g class="st2">
		<path class="st3" d="M669.3,305.5c-0.3-0.2-0.7-0.1-0.8,0.2l-0.8,1.3c-0.2,0.3-0.1,0.7,0.2,0.8c0.1,0.1,0.2,0.1,0.3,0.1
			c0.2,0,0.4-0.1,0.5-0.3l0.8-1.3C669.7,306.1,669.6,305.7,669.3,305.5z"/>
	</g>
	<g class="st2">
		<path class="st3" d="M677.2,291.9c-0.3-0.2-0.7-0.1-0.8,0.2l-0.9,1.5c-0.2,0.3-0.1,0.7,0.2,0.8c0.1,0.1,0.2,0.1,0.3,0.1
			c0.2,0,0.4-0.1,0.5-0.3l0.9-1.5C677.6,292.4,677.5,292.1,677.2,291.9z"/>
	</g>
	<path class="st4" d="M654.8,334.6h-1.6v-2.9c0-0.7-0.6-1.3-1.3-1.3h-1.5v-1.1l-0.2-0.2l0,0l-3.4-3.4l-3.6-3.6h-11.4v5.1h-2.5
		c-0.7,0-1.3,0.6-1.3,1.3v20.4l0,0c0,0.3,0.1,0.5,0.2,0.7c0.2,0.3,0.6,0.5,1,0.5h20.9c0.5,0,1-0.4,1.1-0.8l4.8-13.1V336
		C656,335.2,655.5,334.6,654.8,334.6z M651.9,331.3c0.2,0,0.3,0.2,0.3,0.3v2.9h-1.9v-3.3h1.6V331.3z M643.4,323.6l5.4,5.4h-5.4
		V323.6z M632.7,322.9h9.8v7h7v0.5v4.2H634c-0.1,0-0.1,0-0.2,0c-0.5,0.1-0.8,0.4-0.9,0.8l-0.1,0.4v-8.7L632.7,322.9L632.7,322.9z
		 M628.9,328.4c0-0.2,0.2-0.3,0.3-0.3h2.5v10.3l-2.8,7.6V328.4z M650.3,348.9c0,0.1-0.1,0.2-0.3,0.2h-20.9c-0.1,0-0.2-0.1-0.2-0.1
		s-0.1-0.1-0.1-0.2l2.8-7.7l0,0l1.9-5.3l0,0c0-0.1,0.1-0.2,0.3-0.2h15.5h0.9h2.8h1.6c0.2,0,0.2,0.3,0.2,0.4L650.3,348.9z"/>
	<path class="st4" d="M635.5,329.9h4.7c0.3,0,0.5-0.2,0.5-0.5s-0.2-0.5-0.5-0.5h-4.7c-0.3,0-0.5,0.2-0.5,0.5
		C635,329.7,635.2,329.9,635.5,329.9z"/>
	<path class="st4" d="M635.5,326.7h4.7c0.3,0,0.5-0.2,0.5-0.5s-0.2-0.5-0.5-0.5h-4.7c-0.3,0-0.5,0.2-0.5,0.5
		S635.2,326.7,635.5,326.7z"/>
	<path class="st4" d="M635.5,333.2h11.2c0.3,0,0.5-0.2,0.5-0.5s-0.2-0.5-0.5-0.5h-11.2c-0.3,0-0.5,0.2-0.5,0.5
		S635.2,333.2,635.5,333.2z"/>
	<g class="st2">
		<g>
			<path class="st3" d="M687.4,559.9c-0.4-0.1-0.8,0.1-0.9,0.6l-0.8,3.1c-0.1,0.4,0.1,0.8,0.6,0.9c0.1,0,0.1,0,0.2,0
				c0.3,0,0.7-0.2,0.7-0.6l0.8-3.1C688,560.4,687.8,560,687.4,559.9z"/>
			<path class="st3" d="M678,544.5c0.1,0,0.2,0,0.3-0.1l8.4-3.5c0.4-0.2,0.6-0.6,0.4-1c-0.2-0.4-0.6-0.6-1-0.4l-8.1,3.4l-21.5-8.9
				v-0.3c0-0.4-0.3-0.8-0.8-0.8s-0.8,0.3-0.8,0.8v0.8c0,0.3,0.2,0.6,0.5,0.7l22.2,9.2C677.8,544.5,677.9,544.5,678,544.5z"/>
			<path class="st3" d="M687.1,552.4c-0.2-0.4-0.6-0.5-1-0.3c-1.5,0.7-3.9,1.6-7.3,1.7v-6.9c0-0.4-0.3-0.8-0.8-0.8s-0.8,0.3-0.8,0.8
				v6.9c-9.5-0.3-12.6-6.1-13-7v-5.2c0-0.4-0.3-0.8-0.8-0.8s-0.8,0.3-0.8,0.8v5.4c0,0.1,0,0.2,0.1,0.3c0.1,0.3,3.4,8.1,15.3,8.1
				c4.2,0,7.1-1,8.8-1.9C687.2,553.2,687.3,552.8,687.1,552.4z"/>
			<path class="st3" d="M689.5,560.6c-0.4,0-0.8,0.3-0.8,0.8v2.3c0,0.4,0.3,0.8,0.8,0.8s0.8-0.3,0.8-0.8v-2.3
				C690.3,561,689.9,560.6,689.5,560.6z"/>
			<path class="st3" d="M700.2,533c-0.4,0-0.8,0.3-0.8,0.8v0.3l-9.2,3.8v-1.4l10.3-4.2c0.3-0.1,0.5-0.4,0.5-0.7s-0.2-0.6-0.5-0.7
				l-22.2-9.2c-0.2-0.1-0.4-0.1-0.6,0l-22.2,9.2c-0.3,0.1-0.5,0.4-0.5,0.7s0.2,0.6,0.5,0.7l22.2,9.2c0.1,0,0.2,0.1,0.3,0.1
				s0.2,0,0.3-0.1l8-3.3c0.4-0.2,0.6-0.6,0.4-1c-0.2-0.4-0.6-0.6-1-0.4L678,540l-20.2-8.4l20.2-8.4l20.2,8.4l-8.8,3.6L681,532
				c0-0.2,0.1-0.3,0.1-0.5c0-1.3-1.3-2.3-3.1-2.3c-1.7,0-3.1,1-3.1,2.3s1.3,2.3,3.1,2.3c0.8,0,1.5-0.2,2-0.5l8.7,3.3v2.5l0,0v16.4
				c-0.9,0.3-1.5,1.2-1.5,2.2c0,1.3,1,2.3,2.3,2.3s2.3-1,2.3-2.3c0-1-0.6-1.8-1.5-2.2v-4.4c2.2-1.7,3-3.9,3-4s0-0.2,0-0.3v-5.4
				c0-0.4-0.3-0.8-0.8-0.8c-0.4,0-0.8,0.3-0.8,0.8v5.2c-0.1,0.3-0.6,1.3-1.5,2.3v-9.5l10.3-4.2c0.3-0.1,0.5-0.4,0.5-0.7v-0.8
				C701,533.4,700.7,533,700.2,533z M678,532.3c-0.9,0-1.5-0.5-1.5-0.8s0.6-0.8,1.5-0.8s1.5,0.5,1.5,0.8S678.9,532.3,678,532.3z
				 M689.5,558.3c-0.4,0-0.8-0.3-0.8-0.8c0-0.4,0.3-0.8,0.8-0.8s0.8,0.3,0.8,0.8S689.9,558.3,689.5,558.3z"/>
			<path class="st3" d="M692.5,560.4c-0.1-0.4-0.5-0.7-0.9-0.6c-0.4,0.1-0.7,0.5-0.6,0.9l0.8,3.1c0.1,0.3,0.4,0.6,0.7,0.6
				c0.1,0,0.1,0,0.2,0c0.4-0.1,0.7-0.5,0.6-0.9L692.5,560.4z"/>
		</g>
	</g>
</g>
</svg>
